<svg width="288" height="327" viewBox="0 0 288 327" fill="none" xmlns="http://www.w3.org/2000/svg">
<mask id="path-1-inside-1_2_6" fill="white">
<path d="M139.788 278.926L111.816 253.795V309.843C112.356 310.421 112.775 311.082 113.053 311.821C114.812 316.513 110.184 322.588 102.714 325.39C95.2442 328.191 87.7627 326.658 86.0029 321.967C84.2433 317.275 88.872 311.2 96.3418 308.398C97.5069 307.961 98.6724 307.63 99.8164 307.399V243.014L0 153.336L140.183 0L139.788 278.926ZM287.633 127.177L196.816 226.514V309.843C197.356 310.421 197.775 311.082 198.053 311.821C199.812 316.513 195.184 322.588 187.714 325.39C180.244 328.191 172.763 326.658 171.003 321.967C169.243 317.275 173.872 311.2 181.342 308.398C182.507 307.961 183.672 307.63 184.816 307.399V239.64L147.45 280.513L147.845 1.58691L287.633 127.177Z"/>
</mask>
<path d="M139.788 278.926L111.816 253.795V309.843C112.356 310.421 112.775 311.082 113.053 311.821C114.812 316.513 110.184 322.588 102.714 325.39C95.2442 328.191 87.7627 326.658 86.0029 321.967C84.2433 317.275 88.872 311.2 96.3418 308.398C97.5069 307.961 98.6724 307.63 99.8164 307.399V243.014L0 153.336L140.183 0L139.788 278.926ZM287.633 127.177L196.816 226.514V309.843C197.356 310.421 197.775 311.082 198.053 311.821C199.812 316.513 195.184 322.588 187.714 325.39C180.244 328.191 172.763 326.658 171.003 321.967C169.243 317.275 173.872 311.2 181.342 308.398C182.507 307.961 183.672 307.63 184.816 307.399V239.64L147.45 280.513L147.845 1.58691L287.633 127.177Z" fill="#6BA8F7"/>
<path d="M139.788 278.926L139.12 279.67L140.785 281.166L140.788 278.927L139.788 278.926ZM111.816 253.795L112.485 253.051L110.816 251.552V253.795H111.816ZM111.816 309.843H110.816V310.237L111.085 310.525L111.816 309.843ZM113.053 311.821L113.989 311.47L113.989 311.47L113.053 311.821ZM102.714 325.39L103.065 326.326L102.714 325.39ZM86.0029 321.967L85.0666 322.318L85.0666 322.318L86.0029 321.967ZM96.3418 308.398L95.9906 307.462H95.9906L96.3418 308.398ZM99.8164 307.399L100.014 308.38L100.816 308.218V307.399H99.8164ZM99.8164 243.014H100.816V242.568L100.485 242.27L99.8164 243.014ZM0 153.336L-0.738053 152.661L-1.41867 153.406L-0.668318 154.08L0 153.336ZM140.183 0L141.183 0.00141447L141.186 -2.57987L139.445 -0.674742L140.183 0ZM287.633 127.177L288.371 127.852L289.051 127.107L288.301 126.433L287.633 127.177ZM196.816 226.514L196.078 225.839L195.816 226.125V226.514H196.816ZM196.816 309.843H195.816V310.237L196.085 310.525L196.816 309.843ZM198.053 311.821L198.989 311.47L198.989 311.47L198.053 311.821ZM187.714 325.39L188.065 326.326H188.065L187.714 325.39ZM171.003 321.967L170.067 322.318L170.067 322.318L171.003 321.967ZM181.342 308.398L180.991 307.462H180.991L181.342 308.398ZM184.816 307.399L185.014 308.38L185.816 308.218V307.399H184.816ZM184.816 239.64H185.816V237.064L184.078 238.965L184.816 239.64ZM147.45 280.513L146.45 280.511L146.447 283.093L148.188 281.187L147.45 280.513ZM147.845 1.58691L148.513 0.84304L146.848 -0.652983L146.845 1.5855L147.845 1.58691ZM139.788 278.926L140.456 278.182L112.485 253.051L111.816 253.795L111.148 254.539L139.12 279.67L139.788 278.926ZM111.816 253.795H110.816V309.843H111.816H112.816V253.795H111.816ZM111.816 309.843L111.085 310.525C111.54 311.013 111.888 311.562 112.116 312.172L113.053 311.821L113.989 311.47C113.663 310.601 113.171 309.829 112.548 309.161L111.816 309.843ZM113.053 311.821L112.116 312.172C112.832 314.081 112.299 316.412 110.549 318.708C108.809 320.992 105.949 323.108 102.363 324.453L102.714 325.39L103.065 326.326C106.948 324.87 110.138 322.548 112.14 319.92C114.132 317.306 115.033 314.253 113.989 311.47L113.053 311.821ZM102.714 325.39L102.363 324.453C98.7762 325.798 95.2304 326.085 92.4179 325.508C89.5898 324.929 87.6552 323.524 86.9392 321.616L86.0029 321.967L85.0666 322.318C86.1104 325.101 88.7965 326.808 92.0165 327.468C95.2521 328.131 99.1819 327.782 103.065 326.326L102.714 325.39ZM86.0029 321.967L86.9392 321.616C86.2233 319.707 86.757 317.376 88.5067 315.08C90.2468 312.796 93.1064 310.68 96.693 309.335L96.3418 308.398L95.9906 307.462C92.1074 308.918 88.9177 311.241 86.9159 313.868C84.9237 316.482 84.0229 319.535 85.0666 322.318L86.0029 321.967ZM96.3418 308.398L96.6929 309.335C97.8087 308.916 98.9228 308.6 100.014 308.38L99.8164 307.399L99.6189 306.419C98.422 306.66 97.2052 307.007 95.9906 307.462L96.3418 308.398ZM99.8164 307.399H100.816V243.014H99.8164H98.8164V307.399H99.8164ZM99.8164 243.014L100.485 242.27L0.668318 152.592L0 153.336L-0.668318 154.08L99.1481 243.758L99.8164 243.014ZM0 153.336L0.738053 154.011L140.921 0.674742L140.183 0L139.445 -0.674742L-0.738053 152.661L0 153.336ZM140.183 0L139.183 -0.00141447L138.788 278.924L139.788 278.926L140.788 278.927L141.183 0.00141447L140.183 0ZM287.633 127.177L286.895 126.502L196.078 225.839L196.816 226.514L197.554 227.188L288.371 127.852L287.633 127.177ZM196.816 226.514H195.816V309.843H196.816H197.816V226.514H196.816ZM196.816 309.843L196.085 310.525C196.54 311.013 196.888 311.562 197.116 312.172L198.053 311.821L198.989 311.47C198.663 310.601 198.171 309.829 197.548 309.161L196.816 309.843ZM198.053 311.821L197.116 312.172C197.832 314.081 197.299 316.412 195.549 318.708C193.809 320.992 190.949 323.108 187.363 324.453L187.714 325.39L188.065 326.326C191.948 324.87 195.138 322.548 197.14 319.92C199.132 317.306 200.033 314.253 198.989 311.47L198.053 311.821ZM187.714 325.39L187.363 324.453C183.776 325.798 180.23 326.085 177.418 325.508C174.59 324.929 172.655 323.524 171.939 321.616L171.003 321.967L170.067 322.318C171.11 325.101 173.797 326.808 177.017 327.468C180.252 328.131 184.182 327.782 188.065 326.326L187.714 325.39ZM171.003 321.967L171.939 321.616C171.223 319.707 171.757 317.376 173.507 315.08C175.247 312.796 178.106 310.68 181.693 309.335L181.342 308.398L180.991 307.462C177.107 308.918 173.918 311.241 171.916 313.868C169.924 316.482 169.023 319.535 170.067 322.318L171.003 321.967ZM181.342 308.398L181.693 309.335C182.809 308.916 183.923 308.6 185.014 308.38L184.816 307.399L184.619 306.419C183.422 306.66 182.205 307.007 180.991 307.462L181.342 308.398ZM184.816 307.399H185.816V239.64H184.816H183.816V307.399H184.816ZM184.816 239.64L184.078 238.965L146.712 279.838L147.45 280.513L148.188 281.187L185.554 240.314L184.816 239.64ZM147.45 280.513L148.45 280.514L148.845 1.58833L147.845 1.58691L146.845 1.5855L146.45 280.511L147.45 280.513ZM147.845 1.58691L147.176 2.33079L286.965 127.921L287.633 127.177L288.301 126.433L148.513 0.84304L147.845 1.58691Z" fill="black" mask="url(#path-1-inside-1_2_6)"/>
<path d="M113.5 93.5C120.321 93.5 126.559 97.6746 131.114 104.553C135.667 111.427 138.5 120.953 138.5 131.5C138.5 142.047 135.667 151.573 131.114 158.447C126.559 165.325 120.321 169.5 113.5 169.5C106.679 169.5 100.441 165.325 95.8857 158.447C91.3326 151.573 88.5 142.047 88.5 131.5C88.5 120.953 91.3326 111.427 95.8857 104.553C100.441 97.6746 106.679 93.5 113.5 93.5Z" fill="white" stroke="black"/>
<path d="M173.5 93.5C180.321 93.5 186.559 97.6746 191.114 104.553C195.667 111.427 198.5 120.953 198.5 131.5C198.5 142.047 195.667 151.573 191.114 158.447C186.559 165.325 180.321 169.5 173.5 169.5C166.679 169.5 160.441 165.325 155.886 158.447C151.333 151.573 148.5 142.047 148.5 131.5C148.5 120.953 151.333 111.427 155.886 104.553C160.441 97.6746 166.679 93.5 173.5 93.5Z" fill="white" stroke="black"/>
<circle cx="164" cy="125" r="14.5" fill="black" stroke="black"/>
<circle cx="103" cy="124" r="14.5" fill="black" stroke="black"/>
</svg>
