<svg width="49" height="51" viewBox="0 0 49 51" fill="none" xmlns="http://www.w3.org/2000/svg">
<rect x="1.42114" y="1.52521" width="45.7972" height="47.7792" rx="3" fill="white" stroke="white" stroke-width="2"/>
<path d="M30.2236 26.0293C30.4157 26.7485 30.4198 27.7362 30.3301 28.7559C30.2279 29.9158 30.009 31.0716 29.8535 31.8271C29.4426 33.7869 28.625 35.7436 27.9453 37.627C27.8856 37.7693 27.8143 38.0244 27.7393 38.3047C27.6584 38.6066 27.5674 38.9595 27.4678 39.3066C27.368 39.6544 27.263 39.9861 27.1562 40.2422C27.1028 40.3704 27.0516 40.4728 27.0049 40.5459C26.9708 40.5992 26.9457 40.6235 26.9346 40.6338C26.8802 40.6487 26.8196 40.6415 26.7334 40.584C26.6303 40.5151 26.5186 40.393 26.4014 40.2295C26.286 40.0686 26.1778 39.8861 26.0752 39.7109C25.9812 39.5505 25.8839 39.3846 25.7969 39.2676H25.7979C25.3553 38.5874 24.85 38.0768 24.3213 37.5947L23.7861 37.1162C23.7078 37.0459 23.6289 36.9708 23.5508 36.8936H23.5498C22.6341 35.9909 21.6816 34.7426 21.2891 33.4609V33.46L21.1533 32.9961C21.1103 32.8404 21.0692 32.683 21.0273 32.5244C20.9439 32.2084 20.8589 31.8858 20.7617 31.5684L20.5898 31.0654C20.529 30.8887 20.4689 30.7026 20.4229 30.5068C20.3838 30.3407 20.3625 30.1901 20.3594 30.0576C20.6838 30.561 20.9271 31.1522 21.1699 31.7783C21.4767 32.5695 21.7866 33.4189 22.2734 34.1191C22.5701 34.5439 23.1682 35.2474 23.8291 35.7959C24.1594 36.07 24.516 36.3147 24.8672 36.4639C25.215 36.6115 25.5939 36.6805 25.9404 36.5439C26.2746 36.4122 26.566 36.0856 26.8154 35.7148C27.0715 35.3341 27.3121 34.862 27.5283 34.3789C27.9581 33.4188 28.3174 32.358 28.5176 31.8516L28.5205 31.8467C29.0412 30.4357 29.3579 29.1331 29.7686 27.6855L29.7715 27.6738L29.7744 27.6611C29.8293 27.3543 29.8904 26.9114 30.0078 26.5215C30.0663 26.3274 30.134 26.1634 30.2109 26.0469C30.215 26.0407 30.2196 26.0351 30.2236 26.0293Z" fill="#FFBF7B" stroke="black" stroke-width="0.5"/>
<path d="M45.5684 2.49913L45.5606 2.505C45.3112 2.71066 44.9526 3.1525 44.556 3.65344C44.1496 4.16689 43.6851 4.76681 43.2087 5.32598C42.7309 5.88678 42.2529 6.39171 41.8227 6.71929C41.6075 6.88317 41.4164 6.9942 41.2531 7.04853C41.2081 7.06348 41.1662 7.07188 41.1281 7.07806C41.3613 6.46832 41.6447 5.90296 41.9245 5.31284C42.2451 4.63654 42.5581 3.93478 42.7552 3.13447C42.8247 2.85642 42.8982 2.58959 42.9744 2.33131C43.916 2.32935 44.8578 2.32785 45.7995 2.32583L45.5684 2.49913Z" fill="#FFFA9F" stroke="black" stroke-width="0.5"/>
<path d="M8.68042 2.25391C8.77787 4.26119 9.56217 6.40357 10.0281 7.90918V7.91016C10.6563 10.1165 11.4984 12.266 12.4402 14.3506V14.3516L12.4441 14.3584C13.445 16.3923 14.3503 18.0097 14.3503 20.3066V24.5771C14.3503 24.7993 14.361 25.0323 14.3699 25.2617C14.3788 25.4932 14.3858 25.7233 14.3826 25.9502C14.3796 26.1606 14.3651 26.3633 14.3367 26.5557C14.2696 26.3283 14.2132 26.0703 14.1609 25.7979C14.0673 25.3106 13.9821 24.7616 13.8523 24.3262L13.7937 24.1465C13.6372 23.6559 13.5423 23.2308 13.405 22.7607C13.2882 22.3608 13.1489 21.9619 12.9304 21.5615L12.8318 21.3896C12.068 20.1086 11.0961 18.9422 10.2429 17.7578C9.43499 16.6362 8.71396 15.4756 8.29272 14.1104L8.21265 13.834C8.0384 13.1446 7.99901 12.4348 7.99878 11.708C7.99856 10.9936 8.038 10.2304 8.01245 9.50586L8.01147 9.50391C7.97133 8.53847 7.84351 7.54229 7.67065 6.56543L7.48511 5.59766C7.26376 4.48446 7.27358 3.37406 7.36499 2.25C7.80346 2.25115 8.2419 2.25269 8.68042 2.25391Z" fill="#84FFB1" stroke="black" stroke-width="0.5"/>
<path d="M46.3884 9.66486C46.0408 9.77359 45.6926 9.8782 45.3425 9.97247C42.8131 10.6479 40.2666 11.4809 37.8923 12.8289C38.1 12.5195 38.3966 12.271 38.741 12.0545C39.0193 11.8796 39.3217 11.7302 39.6228 11.5877C39.9186 11.4477 40.2216 11.3102 40.4792 11.1678L40.4861 11.1649L40.4919 11.16C41.152 10.7401 41.7997 10.2232 42.4285 9.76154C42.9866 9.35174 43.5385 8.97914 44.1082 8.71661L44.3533 8.61115L44.364 8.60626C45.0304 8.30442 45.706 8.00315 46.3875 7.70392C46.3879 8.35756 46.3877 9.01121 46.3884 9.66486Z" fill="#F58208" stroke="black" stroke-width="0.5"/>
<path d="M46.3877 32.6168C46.387 33.9388 46.3883 35.2608 46.3877 36.5826C45.3569 37.4897 44.4076 38.5033 43.6084 39.7526C43.4662 39.0693 43.5133 38.4355 43.6543 37.7897C43.7438 37.3799 43.8696 36.9672 44.0078 36.5319C44.1451 36.0994 44.294 35.6426 44.4248 35.1598C44.6935 34.2163 45.4643 33.3859 46.3877 32.6168Z" fill="#97C4FF" stroke="black" stroke-width="0.5"/>
<path d="M46.3889 25.0854C45.7019 25.6308 45.0409 26.1833 44.3606 26.7183L43.6389 27.271C42.5076 28.0971 41.6805 29.2056 40.8655 30.229C40.1682 31.1046 39.4763 31.9209 38.5979 32.519C38.7331 32.0949 38.9479 31.6206 39.1956 31.1304C39.5476 30.4337 39.9728 29.6879 40.2473 29.0952L40.2522 29.0845C40.5245 28.416 40.8355 27.7463 41.1506 27.0581C41.4648 26.372 41.782 25.6686 42.0598 24.9429L42.0608 24.9419C42.5835 23.5548 43.1272 22.635 43.8352 21.9868C44.4823 21.3945 45.2862 21.0124 46.387 20.7222C46.3887 22.1766 46.3889 23.631 46.3889 25.0854Z" fill="#FFBF7B" stroke="black" stroke-width="0.5"/>
<path d="M46.3887 14.9402C44.9681 15.1405 43.5329 15.5348 42.2168 16.2449C42.6189 15.6588 43.1961 15.1569 43.8564 14.7175C44.664 14.1802 45.5717 13.7517 46.3867 13.3787C46.3874 13.8991 46.3879 14.4197 46.3887 14.9402Z" fill="#97C4FF" stroke="black" stroke-width="0.5"/>
<path d="M13.9951 2.25586C14.5732 3.15888 15.2346 3.99341 15.8652 4.82422C16.4441 5.58684 16.9999 6.35159 17.4629 7.18555L17.6553 7.54785C18.1589 8.54893 18.5888 9.59472 19.0088 10.6484C19.4278 11.6997 19.838 12.7625 20.2998 13.7793L20.3018 13.7812C20.738 14.7135 21.2331 15.5309 21.6631 16.3379C22.0431 17.051 22.3847 17.7769 22.6299 18.625L22.7285 18.9961C23.0334 20.3816 23.338 21.6997 23.5898 23.0762V23.0771C23.6137 23.2404 23.6294 23.4273 23.6445 23.6318C23.6595 23.8334 23.6744 24.052 23.6973 24.2666C23.7421 24.6875 23.8217 25.1425 24.0312 25.4824L24.2207 25.7891L24.4414 25.5049C24.6637 25.2192 24.7722 24.7701 24.8418 24.3613C24.8779 24.1494 24.9059 23.9331 24.9307 23.7334L25.002 23.1963C25.1301 22.6648 25.1943 22.1368 25.251 21.6152C25.3087 21.0835 25.3591 20.5606 25.459 20.0234L25.4609 20.0127C25.8192 17.4573 26.1211 14.8276 26.9258 12.4854C27.5236 10.7451 28.389 9.07535 29.2295 7.36621C30.0378 5.72251 30.8209 4.04608 31.2881 2.27344C32.2262 2.27342 33.1644 2.27355 34.1025 2.27344C34.1004 2.28089 34.0988 2.28849 34.0967 2.2959L33.9932 2.60449L33.9883 2.61816C33.648 3.67091 32.9103 4.67801 32.2412 5.6123V5.61328C30.7252 7.74982 30.5635 9.72488 30.1104 12.2998C29.7577 14.1633 29.2144 15.9726 28.6416 17.793C28.07 19.6093 27.468 21.44 27.0078 23.3281C26.5475 25.187 26.1423 27.0795 25.584 28.9219L25.582 28.9326C25.4494 29.4466 25.316 30.1254 25.1133 30.793C24.9484 31.3359 24.7495 31.8134 24.5078 32.1338C24.469 32.0676 24.4271 31.9863 24.3857 31.8887C24.2908 31.6646 24.2056 31.3888 24.1309 31.0986C23.9815 30.5187 23.8815 29.9075 23.8311 29.5898C23.6254 28.0223 23.3661 26.783 22.7432 25.3672H22.7422C22.0327 23.7577 21.4374 22.1048 20.8252 20.4473C20.2141 18.7927 19.587 17.135 18.8174 15.5332L18.8164 15.5312L18.5771 15.0645C18.0051 13.9914 17.3385 13.021 16.6699 12.0723C15.903 10.984 15.1355 9.92695 14.4814 8.75586L14.4785 8.75L14.2607 8.36621C13.7714 7.45811 13.4055 6.47267 13.0713 5.45215C12.7292 4.4073 12.415 3.30958 12.041 2.25098C12.6924 2.25274 13.3439 2.25413 13.9951 2.25586Z" fill="#97C4FF" stroke="black" stroke-width="0.5"/>
<path d="M22.0085 2.25293C22.3765 3.08424 22.7751 3.8522 22.9968 4.65039L23.0515 4.84961L23.2576 4.83301C23.5184 4.81197 23.728 4.67286 23.8933 4.50293C24.0576 4.33394 24.1954 4.11672 24.3142 3.89941C24.4332 3.68177 24.5434 3.44558 24.6433 3.23926C24.6948 3.13279 24.7438 3.03479 24.7908 2.94727L24.9275 2.71777C25.0557 2.55239 25.1823 2.40172 25.3054 2.25684C26.1082 2.25681 26.9109 2.25705 27.7136 2.25684C27.1066 3.52396 26.4589 4.80472 26.1677 6.25V6.25391C25.914 7.60416 25.6103 8.82758 25.1042 10.1074L25.1013 10.1162C24.9199 10.6284 24.7739 11.2089 24.6179 11.7422C24.5093 12.1134 24.391 12.4663 24.2527 12.7861C24.0228 12.3002 23.8395 11.739 23.6824 11.1953H23.6833L23.6794 11.1855L23.533 10.7861C23.1748 9.88461 22.7019 9.17471 22.1658 8.34961L22.1619 8.34375L21.9353 8.00293C20.8775 6.35823 20.0255 4.26303 19.2166 2.25C20.1473 2.25157 21.0781 2.252 22.0085 2.25293Z" fill="#DC83F5" stroke="black" stroke-width="0.5"/>
<path d="M37.916 2.77521C37.542 4.66726 36.7841 6.42887 36.0645 8.36603L36.0635 8.36896C35.8724 8.9044 35.6327 9.49486 35.3818 10.1209C35.1319 10.7446 34.8717 11.402 34.6426 12.0633C34.1868 13.3785 33.8415 14.7443 33.9639 15.9295L33.9648 15.9402L33.9668 15.951C34.0874 16.5844 34.3088 17.1459 34.542 17.6902C34.7769 18.2385 35.0203 18.7627 35.208 19.3524V19.3533C35.6712 20.9061 36.1324 22.715 36.4395 24.3514V24.3524C36.9825 27.3053 37.4279 30.008 36.374 32.7059C35.6554 34.5519 35.455 36.4758 35.1113 38.3758C35.0035 38.9713 34.8333 39.55 34.6572 40.1424C34.4824 40.7305 34.3007 41.3329 34.1807 41.9568C33.943 43.1765 33.9794 44.5324 34.1514 45.7449C34.3035 46.8193 34.7501 47.6708 35.208 48.4891C33.9186 48.4887 32.6292 48.4894 31.3398 48.4891C30.9826 47.4551 30.6876 46.427 30.5625 45.3817L30.5186 44.909C30.3631 42.4992 30.5215 40.034 31.4258 37.9197L31.4248 37.9188C33.211 33.8297 34.2364 30.5738 33.5303 25.9149C33.2963 24.1688 32.807 22.5586 32.4453 20.9901C32.0808 19.4091 31.8374 17.8401 32.0635 16.1072V16.1063C32.2205 14.8737 32.2951 13.7149 32.8105 12.6365C33.3289 11.7272 33.9748 10.8976 34.3701 9.74493C34.7951 8.63532 35.3417 7.48719 35.8652 6.284C36.3603 5.14626 36.8287 3.96918 37.1328 2.77521H37.916Z" fill="#FF7777" stroke="black" stroke-width="0.5"/>
<path d="M17.1853 21.2847C17.6985 23.466 17.9194 26.0787 18.0603 28.4106L18.1238 29.5132C18.2819 32.7064 19.8739 34.6051 21.2361 37.1577C22.0141 38.6464 22.9676 40.0232 23.9001 41.3843C24.8361 42.7504 25.7523 44.1013 26.4753 45.5571L26.4773 45.562C26.9524 46.471 27.2454 47.4599 27.4001 48.4897C25.6011 48.4894 23.8018 48.489 22.0027 48.4888C22.0055 48.4663 22.0109 48.4441 22.0134 48.4214V48.4194C22.1666 46.9524 22.3267 45.2651 22.0085 43.8315C21.7708 42.3772 21.2819 41.0593 20.7205 39.8081C20.439 39.1807 20.1386 38.5669 19.8425 37.9624C19.5459 37.3566 19.2539 36.7594 18.9861 36.1577L18.9832 36.1519L18.7791 35.6978C17.9324 33.6973 17.5589 31.2803 17.3806 29.0347L17.3113 28.0122C17.2918 27.4419 17.2336 26.8079 17.1726 26.1538C17.1112 25.4947 17.0468 24.8121 17.0134 24.1362C16.9628 23.1129 16.9851 22.1281 17.1853 21.2847Z" fill="#FFFA9F" stroke="black" stroke-width="0.5"/>
<path d="M5.43164 34.2742C5.62584 34.2751 5.77058 34.3508 5.89355 34.4852C6.02374 34.6275 6.1293 34.837 6.21777 35.0965C6.30551 35.3538 6.37014 35.6394 6.42969 35.9217C6.64096 36.9314 6.91925 37.9173 7.20312 38.8875C7.48786 39.8607 7.77735 40.8157 8.01465 41.7762C8.48853 43.6943 8.74867 45.609 8.34082 47.6434L8.33984 47.6463C8.29962 47.8581 8.2484 48.0866 8.18945 48.3289C6.38817 48.3326 5.89562 48.3207 3.81934 48.0877C3.29442 47.7847 3.0427 47.5627 2.92578 47.368C2.81686 47.1864 2.80681 46.9991 2.8623 46.6961L2.86328 46.6883C2.97615 45.9475 3.34469 45.1809 3.70996 44.3611C4.06569 43.5628 4.41797 42.712 4.41797 41.869V41.5623L4.11719 41.6248C3.45927 41.7614 2.84243 42.0018 2.25 42.2752C2.25392 40.4251 2.25826 38.5747 2.25781 36.7244C2.25781 36.6125 2.25692 36.5003 2.25684 36.3885C2.25679 36.3198 2.25687 36.2511 2.25684 36.1824C3.10283 35.5795 3.92689 35.0117 4.53809 34.6043L4.53906 34.6053C4.93672 34.3571 5.22519 34.2733 5.43164 34.2742Z" fill="#FFBF7B" stroke="black" stroke-width="0.5"/>
<path d="M8.01172 22.6349C8.17867 22.6085 8.34948 22.68 8.54102 22.9055C8.73408 23.1328 8.91122 23.4763 9.0752 23.883C9.23767 24.286 9.37896 24.7309 9.50977 25.1506C9.63862 25.564 9.7597 25.9622 9.87598 26.2502L9.87793 26.2551C10.2297 27.0728 10.4893 27.9241 10.8066 28.8019C11.1203 29.6695 11.4847 30.543 12.0371 31.3498V31.3508C12.4871 32.0028 12.9848 32.6102 13.459 33.2141C13.9346 33.8197 14.3918 34.4269 14.7822 35.0978V35.0988C16.2448 37.7541 16.9164 39.4921 17.1611 41.1721C17.4048 42.8447 17.2288 44.4768 16.9521 46.9367C16.9392 46.9573 16.9229 46.9855 16.9014 47.0187C16.8485 47.1006 16.7706 47.2184 16.6709 47.3605C16.4853 47.6252 16.224 47.9714 15.9131 48.3293C15.2199 48.3297 14.5264 48.3286 13.833 48.3293C14.2758 47.051 14.4675 45.8682 14.54 44.4553V44.4494C14.5846 42.6319 14.3592 41.264 13.8662 40.009C13.4366 38.9153 12.8073 37.918 12 36.7922L11.6436 36.301C10.6593 34.9123 9.69437 33.6455 8.90332 32.1926C8.61009 31.6282 8.44107 30.8441 8.22461 30.0197C8.01578 29.2244 7.76035 28.3875 7.27246 27.8312H7.27344C6.95677 27.4541 6.60926 27.2724 6.23633 27.3723C5.90623 27.4607 5.64498 27.7557 5.43262 28.0558C5.21345 28.3656 4.99801 28.7554 4.79004 29.1066C4.57565 29.4687 4.36626 29.7951 4.14453 30.0236L4.32324 30.1974L4.14355 30.0236L4.13477 30.0344C3.61378 30.6346 2.93238 31.0685 2.25 31.5012C2.24973 30.2359 2.25042 28.9705 2.25 27.7053C3.40682 26.9925 4.47565 26.2372 5.30273 25.4133L5.30566 25.4103C5.49869 25.2111 5.70418 24.9318 5.91211 24.6398C6.1244 24.3417 6.34388 24.0234 6.57812 23.7248C6.81241 23.4261 7.05195 23.1587 7.2959 22.9621C7.54072 22.7649 7.7722 22.6541 7.99219 22.6369L8.01172 22.6349Z" fill="#FFC3F9" stroke="black" stroke-width="0.5"/>
<path d="M6.63086 18.0059C6.49388 18.2806 6.37307 18.5276 6.31543 18.6797C5.37493 20.9177 4.58184 23.08 3.16211 24.6641L3.15918 24.668C2.85776 25.0181 2.55475 25.3449 2.25098 25.6563C2.25082 25.0118 2.25112 24.3672 2.25098 23.7227C2.2508 22.9177 2.2502 22.1127 2.25 21.3077C2.65699 20.9932 3.07652 20.7003 3.50195 20.4053C3.95873 20.0887 4.42333 19.7689 4.87402 19.421C5.64567 18.8252 6.38304 18.1411 7.01074 17.2305C6.88049 17.5016 6.74877 17.7695 6.63086 18.0059Z" fill="#DC83F5" stroke="black" stroke-width="0.5"/>
<path d="M37.9665 40.8263C38.8493 41.3505 39.7011 42.0206 40.5657 42.7152C41.4846 43.4536 42.4206 44.2177 43.4085 44.8229L43.8353 45.072C45.0969 45.8147 46.2353 46.0788 47.3576 46.238C46.4686 46.8885 45.5801 47.5397 44.6911 48.1901C44.1983 47.9021 43.7225 47.6436 43.2537 47.3508C42.7492 47.0357 42.2955 46.7017 41.9382 46.3011L41.9339 46.2969L41.4175 45.7189C40.8518 45.0641 40.1598 44.2007 39.5227 43.319C39.0985 42.7319 38.7001 42.1397 38.3811 41.5975C38.2188 41.3218 38.0787 41.0627 37.9665 40.8263Z" fill="#DC83F5" stroke="black" stroke-width="0.5"/>
<path d="M42.5986 17.1923V17.1942C42.6018 17.2164 42.5931 17.2681 42.5303 17.3553C42.4714 17.4371 42.3932 17.5117 42.3271 17.5731L42.3262 17.5741C42.1613 17.7288 41.9683 17.8381 41.7441 17.9647C41.5281 18.0867 41.2813 18.2254 41.0684 18.4335L41.0674 18.4344C40.2406 19.2517 39.906 20.1215 39.7139 21.3505V21.3514C39.6226 21.9485 39.5061 22.526 39.3799 23.118C39.3503 23.2563 39.3321 23.4307 39.3135 23.577C39.2934 23.7348 39.2719 23.8702 39.2383 23.9716C39.2168 24.0361 39.1979 24.063 39.1895 24.0731C39.1788 24.0719 39.157 24.0679 39.1211 24.0507L39.0273 23.996L38.9795 23.9491C38.9361 23.8904 38.9075 23.7914 38.8916 23.6171C38.8867 23.5635 38.8836 23.508 38.8799 23.4481C38.8763 23.3894 38.8718 23.3262 38.8662 23.2635C38.8579 23.1708 38.8459 23.0696 38.8203 22.9696L38.79 22.87C38.6781 22.5549 38.538 22.2348 38.416 21.9344C38.2916 21.628 38.1816 21.3337 38.1143 21.0438C37.9826 20.4768 38.0146 19.9369 38.4424 19.3837V19.3827C38.9049 18.7839 39.5083 18.4183 40.1719 18.1317C40.5046 17.988 40.8482 17.8661 41.1963 17.743C41.369 17.682 41.5431 17.6206 41.7158 17.5565L42.2275 17.3534C42.2932 17.3251 42.3808 17.2748 42.4385 17.244C42.5013 17.2105 42.5527 17.1871 42.5938 17.1737C42.5948 17.1793 42.5977 17.1853 42.5986 17.1923Z" fill="#84FFB1" stroke="black" stroke-width="0.5"/>
<path d="M3.01172 4.86249C3.18472 4.86716 3.30121 4.87612 3.38867 4.89178C3.49648 4.91113 3.56755 4.93818 3.66406 4.97675C3.86827 5.05835 4.11871 5.16122 4.77637 5.26678C5.05698 5.85046 5.19845 6.19602 5.26953 6.50311C5.34376 6.8241 5.34615 7.1144 5.33398 7.61932C5.1775 10.539 4.47167 13.0301 3.67676 15.8976L3.67578 15.8996C3.35228 17.1175 2.87764 18.015 2.25098 18.7746C2.25037 16.9165 2.25057 15.0585 2.25 13.2004C2.42073 11.9245 2.40721 10.5963 2.39941 9.29901C2.39154 7.98845 2.3896 6.70883 2.57812 5.50409C2.58203 5.47976 2.59662 5.44112 2.63379 5.383C2.67072 5.32525 2.71933 5.26414 2.77832 5.19159C2.83365 5.12354 2.89973 5.04251 2.95508 4.96014C2.97504 4.93043 2.99293 4.89701 3.01172 4.86249Z" fill="#FF7777" stroke="black" stroke-width="0.5"/>
</svg>
