<svg width="555" height="941" viewBox="0 0 555 941" fill="none" xmlns="http://www.w3.org/2000/svg">
<path d="M81.9283 1.66655C69.2616 4.46655 55.5283 12.3332 45.3949 22.3332C35.3949 32.0666 31.395 39.2666 23.9283 60.3332C17.6616 77.9332 14.595 84.1999 6.46162 96.0666C0.328285 105 -0.471715 107.667 0.194952 117.667C0.461618 123.667 7.66162 144.2 13.6616 156.6C19.395 168.467 22.7283 171.667 26.0616 168.333C28.3283 165.933 29.2616 160.2 30.0616 140.333L30.595 125.667L38.4616 110.333C46.9949 93.3999 45.9283 94.3332 66.8616 85.6666C74.7283 82.4666 79.1283 79.2666 90.3283 68.8666C97.7949 61.7999 106.195 54.9999 108.995 53.6666C120.328 48.3332 136.062 54.5999 143.928 67.6666C150.195 78.1999 151.262 83.5332 150.462 101C149.795 118.2 147.128 127.533 136.995 148.333C125.528 171.667 112.728 188.867 78.9949 226.467C56.4616 251.4 45.9283 266.067 37.5283 284.067C30.7283 298.867 28.195 309.533 27.2616 327.133C24.0616 389.4 61.795 444.2 120.862 463.4C135.928 468.333 148.995 471 173.662 474.2C192.862 476.6 196.862 477.933 206.462 484.467C209.262 486.467 215.928 489.933 221.262 492.467L230.862 496.867V508.2C230.862 515.4 233.128 534.067 236.995 558.067C244.728 606.333 245.395 619.8 241.662 643.133C240.195 652.6 238.862 664.6 238.862 669.533V678.467L227.262 683.933C188.462 701.8 140.462 726.467 136.595 730.6C134.328 733 129.928 740.067 126.862 746.2C123.795 752.333 116.728 764.333 110.995 772.867C105.262 781.4 98.7283 791.667 96.4616 795.667C92.0616 803.533 89.6616 813 91.9283 813C92.7283 813 95.2616 810.733 97.5283 807.933L101.662 803L100.728 810.067C99.5283 819 101.395 819.133 107.662 810.333C110.328 806.733 112.728 803.667 113.128 803.667C113.528 803.667 113.395 806.333 112.995 809.667C111.795 817.667 113.528 817.4 120.595 808.333C133.262 792.2 150.862 759.4 150.862 751.933C150.862 745.667 151.395 745 160.195 739.4C172.062 731.933 236.728 698.333 239.395 698.333C241.662 698.333 241.795 701.4 240.862 763.4C239.528 858.2 238.328 888.733 235.928 894.333C232.595 901.8 223.262 910.2 215.528 912.333C211.928 913.4 199.795 914.867 188.595 915.533C168.462 917 161.528 918.333 161.528 921C161.528 921.8 163.395 922.733 165.528 923.267C170.328 924.2 170.328 924.6 166.595 928.6C164.995 930.333 164.195 932.067 164.728 932.6C165.262 933.133 169.795 933.8 174.995 934.067C182.862 934.6 184.195 935 184.195 937.133C184.195 938.467 184.728 939.933 185.528 940.333C187.528 941.533 244.595 930.2 250.595 927.4C256.195 924.733 259.128 917.8 258.195 909C256.328 890.2 256.062 851.667 257.528 783.667C259.262 700.333 259.795 691.667 264.195 687C269.128 681.8 314.595 661.933 349.262 649.933C371.128 642.2 378.595 638.467 386.195 631.267C391.528 626.067 392.195 624.867 392.195 619.533C392.062 610.467 388.595 604.467 370.862 583.667C352.595 562.333 313.262 513.4 296.862 491.8L286.462 477.8L292.328 472.6C295.528 469.8 300.462 466.2 303.262 464.733C310.328 461.133 336.328 457.533 342.195 459.267C345.795 460.467 346.862 460.333 347.395 458.867C348.328 456.467 355.928 456.467 360.195 459C364.862 461.667 366.595 461.4 367.128 457.933C367.528 455.267 368.328 455 376.195 454.733C380.995 454.467 394.595 454.067 406.595 453.533L428.195 452.733L432.062 456.867C436.462 461.533 438.328 462.2 436.195 458.467C434.062 454.2 434.462 453.933 442.595 455C459.928 457 476.862 461.133 479.128 463.8C480.328 465.133 482.862 471 484.728 476.733C488.462 487.933 493.128 496.467 494.595 495C495.128 494.6 495.795 489.8 496.195 484.6L496.995 475L502.595 486.6C505.662 493 508.462 499.667 508.995 501.533C510.328 507 512.195 504.2 512.328 496.6L512.462 489.667L514.995 497.667C516.328 502.067 518.328 510.2 519.395 515.667C524.062 539.133 523.928 538.867 524.062 522.2C524.195 507.933 522.995 497.133 520.862 491.267C520.195 489.8 520.595 489 521.928 489C522.995 489 524.728 491.4 525.928 494.6C531.528 510.6 533.928 516.467 535.128 517.667C536.062 518.6 536.328 517.533 535.662 514.333C533.795 504.733 538.328 513.533 543.395 529.4C546.062 538.067 548.862 544.733 549.528 544.333C550.328 543.8 550.862 537.667 550.862 530.6C550.995 518.333 551.128 517.933 552.862 521.667L554.862 525.667L554.062 520.333C553.662 517.4 551.662 511.4 549.662 507C547.528 502.6 545.395 497.533 544.862 495.667C543.528 491.133 534.462 473.133 530.328 466.867C526.595 461 524.462 458.2 519.795 452.333C517.928 450.067 515.662 446.2 514.595 443.667C512.195 438.2 503.395 427.133 485.528 407.667C469.395 389.933 464.462 383.667 458.995 373.667C447.528 352.733 425.795 329 395.662 304.467C342.328 261 315.528 247.267 276.328 243.4C257.928 241.533 227.795 243.533 211.662 247.667C190.195 253.133 162.995 269.933 145.795 288.2C129.928 305.267 121.528 320.333 112.328 348.333C106.328 366.733 106.195 367 101.262 368.733C90.5949 372.733 75.7949 363.933 68.7283 349.533C62.195 336.333 64.195 314.067 73.6616 293.267C82.1949 274.333 94.0616 259.133 131.795 219C168.595 179.667 179.395 163 186.195 135.667C190.862 117 192.062 90.3332 189.128 74.7332C182.728 41.1332 162.995 16.7332 131.928 3.93322C124.728 0.999886 121.128 0.466553 106.862 0.0665525C95.9283 -0.200114 87.2616 0.333219 81.9283 1.66655ZM283.662 507.933C310.728 538.467 361.528 607.933 361.528 614.467C361.528 617.933 356.062 621.133 316.462 640.867C278.062 660.067 268.462 664.467 267.262 663.267C266.862 662.733 265.128 653.667 263.395 643.133C260.595 625 258.062 595.933 254.862 543.667C254.195 531.533 253.128 516.733 252.728 510.733L251.795 499.933L257.395 496.467C260.462 494.467 263.262 492.067 263.795 491C264.195 489.933 264.995 489 265.662 489C266.195 489 274.328 497.533 283.662 507.933Z" fill="#FF23E9"/>
</svg>
