<svg width="64" height="33" viewBox="0 0 64 33" fill="none" xmlns="http://www.w3.org/2000/svg">
<rect width="63.1944" height="33" rx="16.5" fill="#0EB68F"/>
<path d="M19.6556 19.0703C19.6556 18.8359 19.6192 18.6276 19.5462 18.4453C19.4785 18.263 19.3561 18.0964 19.1791 17.9453C19.002 17.7943 18.752 17.6484 18.4291 17.5078C18.1114 17.362 17.7051 17.2135 17.2103 17.0625C16.6686 16.8958 16.1686 16.7109 15.7103 16.5078C15.2572 16.2995 14.8614 16.0599 14.5228 15.7891C14.1843 15.513 13.9212 15.1979 13.7337 14.8438C13.5462 14.4844 13.4525 14.0703 13.4525 13.6016C13.4525 13.138 13.5489 12.7161 13.7416 12.3359C13.9395 11.9557 14.2181 11.6276 14.5775 11.3516C14.9421 11.0703 15.3718 10.8542 15.8666 10.7031C16.3614 10.5469 16.9082 10.4688 17.5072 10.4688C18.3509 10.4688 19.0775 10.625 19.6869 10.9375C20.3015 11.25 20.7728 11.6693 21.1009 12.1953C21.4343 12.7214 21.6009 13.3021 21.6009 13.9375H19.6556C19.6556 13.5625 19.5749 13.2318 19.4134 12.9453C19.2572 12.6536 19.0176 12.4245 18.6947 12.2578C18.377 12.0911 17.9733 12.0078 17.4837 12.0078C17.0202 12.0078 16.6348 12.0781 16.3275 12.2188C16.0202 12.3594 15.791 12.5495 15.64 12.7891C15.489 13.0286 15.4134 13.2995 15.4134 13.6016C15.4134 13.8151 15.4629 14.0104 15.5619 14.1875C15.6608 14.3594 15.8119 14.5208 16.015 14.6719C16.2181 14.8177 16.4733 14.9557 16.7806 15.0859C17.0879 15.2161 17.4499 15.3411 17.8666 15.4609C18.4968 15.6484 19.0462 15.8568 19.515 16.0859C19.9837 16.3099 20.3744 16.5651 20.6869 16.8516C20.9994 17.138 21.2337 17.4635 21.39 17.8281C21.5462 18.1875 21.6244 18.5964 21.6244 19.0547C21.6244 19.5339 21.528 19.9661 21.3353 20.3516C21.1426 20.7318 20.8666 21.0573 20.5072 21.3281C20.153 21.5938 19.7259 21.7995 19.2259 21.9453C18.7311 22.0859 18.1791 22.1562 17.5697 22.1562C17.0228 22.1562 16.4837 22.0833 15.9525 21.9375C15.4265 21.7917 14.9473 21.5703 14.515 21.2734C14.0827 20.9714 13.739 20.5964 13.4837 20.1484C13.2285 19.6953 13.1009 19.1667 13.1009 18.5625H15.0619C15.0619 18.9323 15.1244 19.2474 15.2494 19.5078C15.3796 19.7682 15.5593 19.9818 15.7884 20.1484C16.0176 20.3099 16.2832 20.4297 16.5853 20.5078C16.8926 20.5859 17.2207 20.625 17.5697 20.625C18.028 20.625 18.4108 20.5599 18.7181 20.4297C19.0306 20.2995 19.265 20.1172 19.4212 19.8828C19.5775 19.6484 19.6556 19.3776 19.6556 19.0703ZM22.4919 17.8672V17.6875C22.4919 17.0781 22.5804 16.513 22.7575 15.9922C22.9346 15.4661 23.1898 15.0104 23.5231 14.625C23.8617 14.2344 24.2731 13.9323 24.7575 13.7188C25.2471 13.5 25.7992 13.3906 26.4137 13.3906C27.0335 13.3906 27.5856 13.5 28.07 13.7188C28.5596 13.9323 28.9736 14.2344 29.3122 14.625C29.6507 15.0104 29.9085 15.4661 30.0856 15.9922C30.2627 16.513 30.3512 17.0781 30.3512 17.6875V17.8672C30.3512 18.4766 30.2627 19.0417 30.0856 19.5625C29.9085 20.0833 29.6507 20.5391 29.3122 20.9297C28.9736 21.3151 28.5622 21.6172 28.0778 21.8359C27.5934 22.0495 27.044 22.1562 26.4294 22.1562C25.8096 22.1562 25.2549 22.0495 24.7653 21.8359C24.2809 21.6172 23.8695 21.3151 23.5309 20.9297C23.1924 20.5391 22.9346 20.0833 22.7575 19.5625C22.5804 19.0417 22.4919 18.4766 22.4919 17.8672ZM24.3747 17.6875V17.8672C24.3747 18.2474 24.4137 18.6068 24.4919 18.9453C24.57 19.2839 24.6924 19.5807 24.8591 19.8359C25.0257 20.0911 25.2393 20.2917 25.4997 20.4375C25.7601 20.5833 26.07 20.6562 26.4294 20.6562C26.7783 20.6562 27.0804 20.5833 27.3356 20.4375C27.596 20.2917 27.8096 20.0911 27.9762 19.8359C28.1429 19.5807 28.2653 19.2839 28.3434 18.9453C28.4268 18.6068 28.4684 18.2474 28.4684 17.8672V17.6875C28.4684 17.3125 28.4268 16.9583 28.3434 16.625C28.2653 16.2865 28.1403 15.987 27.9684 15.7266C27.8018 15.4661 27.5882 15.263 27.3278 15.1172C27.0726 14.9661 26.7679 14.8906 26.4137 14.8906C26.0596 14.8906 25.7523 14.9661 25.4919 15.1172C25.2367 15.263 25.0257 15.4661 24.8591 15.7266C24.6924 15.987 24.57 16.2865 24.4919 16.625C24.4137 16.9583 24.3747 17.3125 24.3747 17.6875ZM33.625 10V22H31.7344V10H33.625ZM38.1175 20.5078L40.1878 13.5469H42.1409L39.2034 22H37.9847L38.1175 20.5078ZM36.5316 13.5469L38.6409 20.5391L38.7425 22H37.5238L34.5706 13.5469H36.5316ZM46.6022 22.1562C45.9772 22.1562 45.4121 22.0547 44.9069 21.8516C44.4069 21.6432 43.9798 21.3542 43.6256 20.9844C43.2767 20.6146 43.0084 20.1797 42.8209 19.6797C42.6334 19.1797 42.5397 18.6406 42.5397 18.0625V17.75C42.5397 17.0885 42.636 16.4896 42.8288 15.9531C43.0215 15.4167 43.2897 14.9583 43.6334 14.5781C43.9772 14.1927 44.3834 13.8984 44.8522 13.6953C45.3209 13.4922 45.8288 13.3906 46.3756 13.3906C46.9798 13.3906 47.5084 13.4922 47.9616 13.6953C48.4147 13.8984 48.7897 14.1849 49.0866 14.5547C49.3886 14.9193 49.6126 15.3542 49.7584 15.8594C49.9095 16.3646 49.985 16.9219 49.985 17.5312V18.3359H43.4538V16.9844H48.1256V16.8359C48.1152 16.4974 48.0475 16.1797 47.9225 15.8828C47.8027 15.5859 47.6178 15.3464 47.3678 15.1641C47.1178 14.9818 46.7845 14.8906 46.3678 14.8906C46.0553 14.8906 45.7767 14.9583 45.5319 15.0938C45.2923 15.224 45.0918 15.4141 44.9303 15.6641C44.7689 15.9141 44.6439 16.2161 44.5553 16.5703C44.472 16.9193 44.4303 17.3125 44.4303 17.75V18.0625C44.4303 18.4323 44.4798 18.776 44.5788 19.0938C44.6829 19.4062 44.834 19.6797 45.0319 19.9141C45.2298 20.1484 45.4694 20.3333 45.7506 20.4688C46.0319 20.599 46.3522 20.6641 46.7116 20.6641C47.1647 20.6641 47.5683 20.5729 47.9225 20.3906C48.2767 20.2083 48.584 19.9505 48.8444 19.6172L49.8366 20.5781C49.6543 20.8438 49.4173 21.099 49.1256 21.3438C48.834 21.5833 48.4772 21.7786 48.0553 21.9297C47.6386 22.0807 47.1543 22.1562 46.6022 22.1562Z" fill="white"/>
</svg>
