<svg width="64" height="33" viewBox="0 0 64 33" fill="none" xmlns="http://www.w3.org/2000/svg">
<rect width="63.1944" height="33" rx="16.5" fill="#0EB68F"/>
<path d="M20.3947 18.3809C20.3947 18.1612 20.3606 17.9659 20.2922 17.795C20.2287 17.6241 20.114 17.4678 19.948 17.3262C19.7819 17.1846 19.5476 17.0479 19.2448 16.9161C18.947 16.7794 18.5661 16.6402 18.1023 16.4986C17.5944 16.3423 17.1257 16.169 16.696 15.9786C16.2712 15.7833 15.9001 15.5587 15.5827 15.3047C15.2653 15.046 15.0188 14.7505 14.843 14.4185C14.6672 14.0816 14.5793 13.6934 14.5793 13.254C14.5793 12.8194 14.6696 12.4239 14.8503 12.0674C15.0358 11.711 15.2971 11.4034 15.634 11.1446C15.9758 10.8809 16.3786 10.6783 16.8425 10.5367C17.3064 10.3902 17.8191 10.317 18.3806 10.317C19.1716 10.317 19.8527 10.4634 20.424 10.7564C21.0002 11.0494 21.4421 11.4424 21.7497 11.9356C22.0622 12.4288 22.2185 12.9732 22.2185 13.5689H20.3947C20.3947 13.2173 20.3191 12.9073 20.1677 12.6387C20.0212 12.3653 19.7966 12.1505 19.4939 11.9942C19.196 11.838 18.8176 11.7598 18.3586 11.7598C17.924 11.7598 17.5627 11.8257 17.2746 11.9576C16.9865 12.0894 16.7717 12.2676 16.6301 12.4922C16.4885 12.7169 16.4177 12.9708 16.4177 13.254C16.4177 13.4542 16.4641 13.6373 16.5568 13.8033C16.6496 13.9644 16.7912 14.1158 16.9816 14.2574C17.1721 14.3941 17.4113 14.5235 17.6994 14.6456C17.9875 14.7676 18.3269 14.8848 18.7175 14.9971C19.3083 15.1729 19.8234 15.3682 20.2629 15.5831C20.7024 15.793 21.0686 16.0323 21.3615 16.3008C21.6545 16.5694 21.8742 16.8746 22.0207 17.2164C22.1672 17.5533 22.2404 17.9366 22.2404 18.3663C22.2404 18.8155 22.1501 19.2208 21.9694 19.5821C21.7888 19.9385 21.53 20.2437 21.1931 20.4976C20.861 20.7466 20.4607 20.9395 19.9919 21.0762C19.528 21.2081 19.0105 21.274 18.4392 21.274C17.9265 21.274 17.4211 21.2056 16.9231 21.0689C16.4299 20.9322 15.9807 20.7247 15.5754 20.4464C15.1701 20.1631 14.8479 19.8116 14.6086 19.3917C14.3693 18.9669 14.2497 18.4713 14.2497 17.9048H16.0881C16.0881 18.2515 16.1467 18.5469 16.2639 18.7911C16.3859 19.0352 16.5544 19.2354 16.7692 19.3917C16.9841 19.543 17.2331 19.6553 17.5163 19.7286C17.8044 19.8018 18.112 19.8384 18.4392 19.8384C18.8689 19.8384 19.2277 19.7774 19.5158 19.6553C19.8088 19.5333 20.0285 19.3624 20.175 19.1426C20.3215 18.9229 20.3947 18.669 20.3947 18.3809ZM23.3537 17.253V17.0845C23.3537 16.5132 23.4367 15.9835 23.6027 15.4952C23.7688 15.002 24.008 14.5748 24.3205 14.2134C24.6379 13.8472 25.0236 13.564 25.4777 13.3638C25.9367 13.1588 26.4543 13.0562 27.0305 13.0562C27.6115 13.0562 28.1291 13.1588 28.5832 13.3638C29.0422 13.564 29.4304 13.8472 29.7478 14.2134C30.0651 14.5748 30.3068 15.002 30.4729 15.4952C30.6389 15.9835 30.7219 16.5132 30.7219 17.0845V17.253C30.7219 17.8243 30.6389 18.3541 30.4729 18.8423C30.3068 19.3306 30.0651 19.7579 29.7478 20.1241C29.4304 20.4854 29.0446 20.7686 28.5905 20.9737C28.1364 21.1739 27.6213 21.274 27.0451 21.274C26.4641 21.274 25.9441 21.1739 25.4851 20.9737C25.031 20.7686 24.6452 20.4854 24.3278 20.1241C24.0105 19.7579 23.7688 19.3306 23.6027 18.8423C23.4367 18.3541 23.3537 17.8243 23.3537 17.253ZM25.1189 17.0845V17.253C25.1189 17.6094 25.1555 17.9464 25.2287 18.2637C25.302 18.5811 25.4167 18.8594 25.573 19.0987C25.7292 19.338 25.9294 19.5259 26.1735 19.6627C26.4177 19.7994 26.7082 19.8677 27.0451 19.8677C27.3723 19.8677 27.6555 19.7994 27.8947 19.6627C28.1389 19.5259 28.3391 19.338 28.4953 19.0987C28.6516 18.8594 28.7663 18.5811 28.8396 18.2637C28.9177 17.9464 28.9567 17.6094 28.9567 17.253V17.0845C28.9567 16.733 28.9177 16.4009 28.8396 16.0884C28.7663 15.7711 28.6491 15.4903 28.488 15.2462C28.3317 15.002 28.1316 14.8116 27.8874 14.6749C27.6482 14.5333 27.3625 14.4625 27.0305 14.4625C26.6984 14.4625 26.4104 14.5333 26.1662 14.6749C25.927 14.8116 25.7292 15.002 25.573 15.2462C25.4167 15.4903 25.302 15.7711 25.2287 16.0884C25.1555 16.4009 25.1189 16.733 25.1189 17.0845ZM34.091 9.8775V21.1275H32.3186V9.8775H34.091ZM38.6027 19.7286L40.5437 13.2027H42.3747L39.6208 21.1275H38.4782L38.6027 19.7286ZM37.1159 13.2027L39.0935 19.7579L39.1887 21.1275H38.0461L35.2775 13.2027H37.1159ZM46.8571 21.274C46.2712 21.274 45.7414 21.1788 45.2678 20.9883C44.799 20.793 44.3986 20.522 44.0666 20.1754C43.7395 19.8287 43.488 19.421 43.3122 18.9522C43.1364 18.4835 43.0485 17.9781 43.0485 17.4361V17.1431C43.0485 16.523 43.1389 15.9615 43.3195 15.4586C43.5002 14.9556 43.7517 14.5259 44.0739 14.1695C44.3962 13.8082 44.7771 13.5323 45.2165 13.3419C45.656 13.1514 46.132 13.0562 46.6447 13.0562C47.2111 13.0562 47.7067 13.1514 48.1316 13.3419C48.5564 13.5323 48.9079 13.8008 49.1862 14.1475C49.4694 14.4893 49.6794 14.897 49.8161 15.3707C49.9577 15.8443 50.0285 16.3668 50.0285 16.938V17.6924H43.9055V16.4254H48.2854V16.2862C48.2756 15.9688 48.2121 15.671 48.0949 15.3926C47.9826 15.1143 47.8093 14.8897 47.5749 14.7188C47.3405 14.5479 47.028 14.4625 46.6374 14.4625C46.3444 14.4625 46.0832 14.5259 45.8537 14.6529C45.6291 14.775 45.4411 14.9532 45.2898 15.1876C45.1384 15.4219 45.0212 15.7051 44.9382 16.0372C44.8601 16.3643 44.821 16.733 44.821 17.1431V17.4361C44.821 17.7828 44.8674 18.105 44.9602 18.4029C45.0578 18.6959 45.1994 18.9522 45.385 19.1719C45.5705 19.3917 45.7951 19.565 46.0588 19.692C46.3225 19.814 46.6228 19.8751 46.9597 19.8751C47.3845 19.8751 47.7629 19.7896 48.0949 19.6187C48.427 19.4478 48.715 19.2061 48.9592 18.8936L49.8894 19.7945C49.7185 20.0435 49.4963 20.2828 49.2229 20.5123C48.9494 20.7369 48.615 20.92 48.2194 21.0616C47.8288 21.2032 47.3747 21.274 46.8571 21.274Z" fill="white"/>
</svg>
