<svg width="800" height="663" viewBox="0 0 800 663" fill="none" xmlns="http://www.w3.org/2000/svg">
<path d="M706.465 298.82C702.894 295.974 698.763 290.196 696.791 286.074C674.994 240.373 612.623 227.195 553.236 229.996C489.654 232.991 410.432 244.645 398.782 234.656C388.211 225.592 407.249 232.437 428.528 218.088C432.318 215.53 431.446 213.748 426.903 214.314C411.943 216.157 380.035 217.567 361.81 199.713C358.533 196.522 354.222 190.363 352.726 186.043C344.656 162.755 383.107 156.696 384.396 179.513C384.655 184.071 385.176 184.395 386.473 180.01C389.685 169.176 391.448 149.907 367.157 142.436C336.982 133.149 310.607 136.007 299.7 122.125C296.879 118.533 299.433 116.028 303.862 117.159C321.441 121.669 365.427 129.145 407.345 105.764C411.329 103.536 410.877 102.539 406.407 103.48C387.102 107.56 337.224 113.809 304.249 79.5214C273.545 47.5922 246.292 56.9764 234.113 64.0962C230.156 66.4043 224.418 66.5862 220.68 63.9636C214.282 59.4691 203.744 52.5748 191.233 46.3205C191.233 46.3205 171.015 38.3311 164.021 12.3595C157.029 -13.5998 150.29 7.61885 151.044 19.1088C151.456 25.5053 152.111 33.7655 152.601 39.8228C152.972 44.3734 150.936 50.9367 147.7 54.1651C143.755 58.1126 138.425 62.7028 134.061 63.7899C126.075 65.7821 117.585 69.5328 113.338 83.5113C109.091 97.4898 83.3781 110.971 70.4018 117.213C57.4256 123.452 33.1988 141.427 37.9435 151.913C42.6841 162.4 30.702 175.126 52.9311 181.377C75.1534 187.616 77.1457 183.62 81.6388 174.632C85.7039 166.502 105.897 173.892 129.295 164.857C133.563 163.208 140.432 162.292 144.979 162.772C150.887 163.398 159.022 163.507 166.032 160.901C178.762 156.156 172.021 168.393 172.021 175.124C172.021 181.134 173.416 240.864 176.899 267.58C177.484 272.114 176.401 278.944 174.348 283.029C165.701 300.292 147.003 344.886 163.757 380.196C165.718 384.326 164.581 389.296 160.481 391.293C149.562 396.618 127.607 405.59 102.875 406.059C67.5878 406.72 59.2606 428.697 57.5993 437.022C55.9338 445.347 16.986 493.452 18.9906 510.425C20.8215 525.957 1.73587 535.64 0.0143698 563.573C-0.268673 568.13 3.67205 571.242 8.08452 570.039C20.3976 566.668 42.4544 557.972 42.4544 538.891C42.4544 512.428 40.4581 518.168 51.4421 499.449C61.7957 481.806 69.4857 444.661 112.098 440.215C116.64 439.746 123.975 440.58 128.468 441.404C134.195 442.455 141.932 443.666 148.099 443.925C152.665 444.12 154.116 446.286 152.096 450.391C149.513 455.646 146.847 463.227 147.651 471.034C148.124 475.575 152.956 480.943 156.738 483.504C168.324 491.36 191.689 508.397 204.953 526.478C207.66 530.163 212.51 535.829 217.055 536.33C220.934 536.751 226.654 536.475 234.946 534.399C255.918 529.162 258.408 538.4 260.413 540.637C262.409 542.885 274.641 533.896 293.113 535.651C293.113 535.651 301.596 535.651 287.12 522.921C276.136 513.264 272.769 504.041 265.79 501.131C261.572 499.37 253.874 500.703 249.654 502.472C244.43 504.655 244.562 507.935 241.435 514.191C237.188 522.677 229.947 511.192 226.208 508.193C222.457 505.203 182.011 486.477 184.759 467.257C187.508 448.03 213.471 465.753 255.167 455.022C278.836 448.92 293.012 446.455 300.852 445.452C305.386 444.879 312.793 444.563 317.369 444.427C329.262 444.088 350.557 444.2 357.784 448.783C367.466 454.925 459.549 455.031 503.508 431.375C507.526 429.2 510.572 430.776 510.913 435.335C511.461 442.901 512.884 453.626 516.571 458.524C521.775 465.466 518.123 497.836 502.838 507.525C498.984 509.982 491.411 510.54 486.859 511.058C466.152 513.393 431.86 518.687 418.284 527.037C414.38 529.429 409.635 535.006 406.014 537.794C394.987 546.288 373.823 564.771 370.016 584.112C369.139 588.597 373.217 592.622 377.78 592.703C384.807 592.841 395.132 592.598 404.039 590.707C408.504 589.754 413.012 584.783 414.905 580.62C419.842 569.751 431.554 550.845 454.385 547.151C480.773 542.893 509.973 538.301 524.789 534.042C529.186 532.789 533.809 534.672 534.746 539.141C535.958 544.88 536.829 552.784 534.777 559.638C531.044 572.116 509.812 607.071 483.109 622.055C462.321 633.702 449.406 642.632 445.51 651.901C443.732 656.113 448.063 660.614 452.599 661.124C463.897 662.393 483.812 663.516 492.338 657.261C495.013 655.29 496.904 653.624 498.214 652.219C501.148 649.09 499.563 642.762 500.493 639.586C501.042 637.711 502.312 636.289 505.067 637.033C511.558 638.778 514.555 640.774 518.307 632.046C522.057 623.3 561.99 579.609 577.977 571.122C593.956 562.628 592.21 545.405 585.971 526.679C579.725 507.961 575.732 467.51 597.197 454.028C618.671 440.548 654.872 404.598 669.597 384.627C677.525 373.878 690.876 364.714 698.87 350.132C701.076 346.123 704.172 345.801 706.282 349.858C723.698 383.358 732.136 425.489 706.573 444.539C672.507 469.925 690.933 495.901 701.82 506.957C705.029 510.214 705.691 509.52 703.534 505.494C688.298 477.126 721.832 471.275 727.635 485.557C732.337 497.153 723.455 528.642 718.8 543.423C717.434 547.781 719.536 549.486 722.72 546.211C727.383 541.419 730.892 535.188 733.171 530.339C735.102 526.202 735.433 526.299 734.682 530.808C727.319 574.687 744.567 601.818 754.086 612.995C757.044 616.479 758.798 615.355 758.079 610.845C750.409 562.765 799.992 537.516 800.001 445.913C799.968 384.575 745.938 330.291 706.465 298.82Z" fill="#A25252"/>
</svg>
