<svg width="304" height="360" viewBox="0 0 304 360" fill="none" xmlns="http://www.w3.org/2000/svg">
<mask id="path-1-inside-1_2_5" fill="white">
<path d="M202.26 33.1592L239.684 32.3848L253.449 69.3271L303.461 104.663L285.038 154.101L300.47 195.513L258.578 225.11L242.675 267.791L204.286 266.996V342.485C204.825 343.063 205.245 343.724 205.522 344.464C207.282 349.156 202.653 355.231 195.184 358.032C187.714 360.834 180.232 359.301 178.473 354.609C176.713 349.918 181.342 343.843 188.812 341.041C189.977 340.604 191.142 340.273 192.286 340.042V271.949L152.337 300.176L119.286 278.817V342.485C119.825 343.063 120.245 343.724 120.522 344.464C122.282 349.156 117.653 355.231 110.184 358.032C102.714 360.834 95.2324 359.301 93.4727 354.609C91.713 349.918 96.3417 343.843 103.812 341.041C104.977 340.604 106.142 340.273 107.286 340.042V271.062L97.5742 264.787L56.9746 263.947L46.4775 231.768L0 201.732L18.3408 145.502L2.99121 98.4434L41.8896 73.3057L53.9834 36.2295L100.763 35.2607L155.328 0L202.26 33.1592Z"/>
</mask>
<path d="M202.26 33.1592L239.684 32.3848L253.449 69.3271L303.461 104.663L285.038 154.101L300.47 195.513L258.578 225.11L242.675 267.791L204.286 266.996V342.485C204.825 343.063 205.245 343.724 205.522 344.464C207.282 349.156 202.653 355.231 195.184 358.032C187.714 360.834 180.232 359.301 178.473 354.609C176.713 349.918 181.342 343.843 188.812 341.041C189.977 340.604 191.142 340.273 192.286 340.042V271.949L152.337 300.176L119.286 278.817V342.485C119.825 343.063 120.245 343.724 120.522 344.464C122.282 349.156 117.653 355.231 110.184 358.032C102.714 360.834 95.2324 359.301 93.4727 354.609C91.713 349.918 96.3417 343.843 103.812 341.041C104.977 340.604 106.142 340.273 107.286 340.042V271.062L97.5742 264.787L56.9746 263.947L46.4775 231.768L0 201.732L18.3408 145.502L2.99121 98.4434L41.8896 73.3057L53.9834 36.2295L100.763 35.2607L155.328 0L202.26 33.1592Z" fill="#FFAAF6"/>
<path d="M202.26 33.1592L201.683 33.9759L201.951 34.1658L202.28 34.159L202.26 33.1592ZM239.684 32.3848L240.621 32.0356L240.373 31.3703L239.663 31.385L239.684 32.3848ZM253.449 69.3271L252.512 69.6763L252.62 69.9657L252.872 70.1439L253.449 69.3271ZM303.461 104.663L304.398 105.012L304.667 104.291L304.038 103.846L303.461 104.663ZM285.038 154.101L284.101 153.751L283.971 154.101L284.101 154.45L285.038 154.101ZM300.47 195.513L301.047 196.329L301.676 195.885L301.407 195.164L300.47 195.513ZM258.578 225.11L258.001 224.294L257.749 224.472L257.641 224.761L258.578 225.11ZM242.675 267.791L242.654 268.791L243.364 268.806L243.612 268.14L242.675 267.791ZM204.286 266.996L204.307 265.996L203.286 265.975V266.996H204.286ZM204.286 342.485H203.286V342.879L203.555 343.168L204.286 342.485ZM205.522 344.464L206.459 344.113L206.459 344.113L205.522 344.464ZM195.184 358.032L195.535 358.969H195.535L195.184 358.032ZM178.473 354.609L177.536 354.961V354.961L178.473 354.609ZM188.812 341.041L188.46 340.105H188.46L188.812 341.041ZM192.286 340.042L192.484 341.022L193.286 340.861V340.042H192.286ZM192.286 271.949H193.286V270.018L191.709 271.133L192.286 271.949ZM152.337 300.176L151.794 301.016L152.362 301.383L152.914 300.992L152.337 300.176ZM119.286 278.817L119.829 277.978L118.286 276.981V278.817H119.286ZM119.286 342.485H118.286V342.879L118.555 343.168L119.286 342.485ZM120.522 344.464L121.459 344.113L121.459 344.113L120.522 344.464ZM110.184 358.032L110.535 358.969L110.184 358.032ZM93.4727 354.609L92.5363 354.961L92.5364 354.961L93.4727 354.609ZM103.812 341.041L103.46 340.105H103.46L103.812 341.041ZM107.286 340.042L107.484 341.022L108.286 340.861V340.042H107.286ZM107.286 271.062H108.286V270.518L107.829 270.223L107.286 271.062ZM97.5742 264.787L98.1169 263.947L97.8786 263.793L97.5949 263.787L97.5742 264.787ZM56.9746 263.947L56.0239 264.257L56.2441 264.932L56.9539 264.947L56.9746 263.947ZM46.4775 231.768L47.4282 231.457L47.3182 231.12L47.0203 230.928L46.4775 231.768ZM0 201.732L-0.950706 201.422L-1.18948 202.154L-0.54276 202.572L0 201.732ZM18.3408 145.502L19.2915 145.812L19.3927 145.502L19.2915 145.192L18.3408 145.502ZM2.99121 98.4434L2.44845 97.6035L1.80173 98.0214L2.04051 98.7535L2.99121 98.4434ZM41.8896 73.3057L42.4324 74.1455L42.7303 73.953L42.8404 73.6158L41.8896 73.3057ZM53.9834 36.2295L53.9627 35.2297L53.2529 35.2444L53.0327 35.9194L53.9834 36.2295ZM100.763 35.2607L100.783 36.2605L101.067 36.2547L101.305 36.1006L100.763 35.2607ZM155.328 0L155.905 -0.816714L155.353 -1.20677L154.785 -0.839895L155.328 0ZM202.26 33.1592L202.28 34.159L239.704 33.3846L239.684 32.3848L239.663 31.385L202.239 32.1594L202.26 33.1592ZM239.684 32.3848L238.747 32.7339L252.512 69.6763L253.449 69.3271L254.386 68.978L240.621 32.0356L239.684 32.3848ZM253.449 69.3271L252.872 70.1439L302.884 105.48L303.461 104.663L304.038 103.846L254.026 68.5104L253.449 69.3271ZM303.461 104.663L302.524 104.314L284.101 153.751L285.038 154.101L285.975 154.45L304.398 105.012L303.461 104.663ZM285.038 154.101L284.101 154.45L299.533 195.862L300.47 195.513L301.407 195.164L285.975 153.751L285.038 154.101ZM300.47 195.513L299.893 194.696L258.001 224.294L258.578 225.11L259.155 225.927L301.047 196.329L300.47 195.513ZM258.578 225.11L257.641 224.761L241.738 267.442L242.675 267.791L243.612 268.14L259.515 225.46L258.578 225.11ZM242.675 267.791L242.696 266.791L204.307 265.996L204.286 266.996L204.265 267.996L242.654 268.791L242.675 267.791ZM204.286 266.996H203.286V342.485H204.286H205.286V266.996H204.286ZM204.286 342.485L203.555 343.168C204.01 343.655 204.357 344.205 204.586 344.815L205.522 344.464L206.459 344.113C206.133 343.244 205.641 342.471 205.017 341.803L204.286 342.485ZM205.522 344.464L204.586 344.815C205.302 346.724 204.768 349.055 203.019 351.351C201.279 353.634 198.419 355.751 194.832 357.096L195.184 358.032L195.535 358.969C199.418 357.512 202.608 355.19 204.609 352.563C206.602 349.948 207.503 346.896 206.459 344.113L205.522 344.464ZM195.184 358.032L194.832 357.096C191.246 358.441 187.7 358.727 184.888 358.151C182.059 357.572 180.125 356.167 179.409 354.258L178.473 354.609L177.536 354.961C178.58 357.743 181.266 359.451 184.486 360.11C187.722 360.773 191.652 360.425 195.535 358.969L195.184 358.032ZM178.473 354.609L179.409 354.258C178.693 352.349 179.227 350.019 180.976 347.722C182.717 345.439 185.576 343.322 189.163 341.977L188.812 341.041L188.46 340.105C184.577 341.561 181.387 343.883 179.386 346.51C177.393 349.125 176.493 352.178 177.536 354.961L178.473 354.609ZM188.812 341.041L189.163 341.977C190.278 341.559 191.393 341.242 192.484 341.022L192.286 340.042L192.089 339.062C190.892 339.303 189.675 339.649 188.46 340.105L188.812 341.041ZM192.286 340.042H193.286V271.949H192.286H191.286V340.042H192.286ZM192.286 271.949L191.709 271.133L151.76 299.359L152.337 300.176L152.914 300.992L192.863 272.766L192.286 271.949ZM152.337 300.176L152.88 299.336L119.829 277.978L119.286 278.817L118.743 279.657L151.794 301.016L152.337 300.176ZM119.286 278.817H118.286V342.485H119.286H120.286V278.817H119.286ZM119.286 342.485L118.555 343.168C119.01 343.655 119.357 344.205 119.586 344.815L120.522 344.464L121.459 344.113C121.133 343.244 120.641 342.471 120.017 341.803L119.286 342.485ZM120.522 344.464L119.586 344.815C120.302 346.724 119.768 349.055 118.019 351.351C116.279 353.634 113.419 355.751 109.832 357.096L110.184 358.032L110.535 358.969C114.418 357.512 117.608 355.19 119.609 352.563C121.602 349.948 122.503 346.896 121.459 344.113L120.522 344.464ZM110.184 358.032L109.832 357.096C106.246 358.441 102.7 358.727 99.8876 358.151C97.0595 357.572 95.1249 356.167 94.409 354.258L93.4727 354.609L92.5364 354.961C93.5801 357.743 96.2662 359.451 99.4862 360.11C102.722 360.773 106.652 360.425 110.535 358.969L110.184 358.032ZM93.4727 354.609L94.409 354.258C93.6931 352.349 94.2267 350.019 95.9765 347.722C97.7165 345.439 100.576 343.322 104.163 341.977L103.812 341.041L103.46 340.105C99.5772 341.561 96.3875 343.883 94.3856 346.51C92.3935 349.125 91.4926 352.178 92.5363 354.961L93.4727 354.609ZM103.812 341.041L104.163 341.977C105.278 341.559 106.393 341.242 107.484 341.022L107.286 340.042L107.089 339.062C105.892 339.303 104.675 339.649 103.46 340.105L103.812 341.041ZM107.286 340.042H108.286V271.062H107.286H106.286V340.042H107.286ZM107.286 271.062L107.829 270.223L98.1169 263.947L97.5742 264.787L97.0315 265.627L106.743 271.902L107.286 271.062ZM97.5742 264.787L97.5949 263.787L56.9953 262.947L56.9746 263.947L56.9539 264.947L97.5535 265.787L97.5742 264.787ZM56.9746 263.947L57.9253 263.637L47.4282 231.457L46.4775 231.768L45.5268 232.078L56.0239 264.257L56.9746 263.947ZM46.4775 231.768L47.0203 230.928L0.54276 200.893L0 201.732L-0.54276 202.572L45.9348 232.607L46.4775 231.768ZM0 201.732L0.950706 202.043L19.2915 145.812L18.3408 145.502L17.3901 145.192L-0.950706 201.422L0 201.732ZM18.3408 145.502L19.2915 145.192L3.94191 98.1333L2.99121 98.4434L2.04051 98.7535L17.3901 145.812L18.3408 145.502ZM2.99121 98.4434L3.53398 99.2832L42.4324 74.1455L41.8896 73.3057L41.3469 72.4658L2.44845 97.6035L2.99121 98.4434ZM41.8896 73.3057L42.8404 73.6158L54.9341 36.5396L53.9834 36.2295L53.0327 35.9194L40.9389 72.9956L41.8896 73.3057ZM53.9834 36.2295L54.0041 37.2293L100.783 36.2605L100.763 35.2607L100.742 34.261L53.9627 35.2297L53.9834 36.2295ZM100.763 35.2607L101.305 36.1006L155.871 0.839895L155.328 0L154.785 -0.839895L100.22 34.4208L100.763 35.2607ZM155.328 0L154.751 0.816714L201.683 33.9759L202.26 33.1592L202.837 32.3425L155.905 -0.816714L155.328 0Z" fill="black" mask="url(#path-1-inside-1_2_5)"/>
<path d="M108.5 107.5C115.321 107.5 121.559 111.675 126.114 118.553C130.667 125.427 133.5 134.953 133.5 145.5C133.5 156.047 130.667 165.573 126.114 172.447C121.559 179.325 115.321 183.5 108.5 183.5C101.679 183.5 95.4414 179.325 90.8857 172.447C86.3326 165.573 83.5 156.047 83.5 145.5C83.5 134.953 86.3326 125.427 90.8857 118.553C95.4414 111.675 101.679 107.5 108.5 107.5Z" fill="white" stroke="black"/>
<path d="M165.5 107.5C172.321 107.5 178.559 111.675 183.114 118.553C187.667 125.427 190.5 134.953 190.5 145.5C190.5 156.047 187.667 165.573 183.114 172.447C178.559 179.325 172.321 183.5 165.5 183.5C158.679 183.5 152.441 179.325 147.886 172.447C143.333 165.573 140.5 156.047 140.5 145.5C140.5 134.953 143.333 125.427 147.886 118.553C152.441 111.675 158.679 107.5 165.5 107.5Z" fill="white" stroke="black"/>
<circle cx="156" cy="150" r="14.5" fill="black" stroke="black"/>
<circle cx="98" cy="149" r="14.5" fill="black" stroke="black"/>
</svg>
