<svg width="286" height="311" viewBox="0 0 286 311" fill="none" xmlns="http://www.w3.org/2000/svg">
<mask id="path-1-inside-1_2_7" fill="white">
<path d="M131.297 9.53907C133.263 -3.17972 151.75 -3.17966 153.716 9.53907L154.152 8.20215C158.245 -4.34551 176.896 -0.622224 175.857 12.5352C175.856 12.5524 175.855 12.5698 175.854 12.5869L177.271 10.0205C183.497 -1.26775 200.705 5.80004 197.199 18.2061C197.159 18.3495 197.121 18.4923 197.086 18.6348L199.594 15.5576C207.524 5.82112 222.762 15.689 217.121 26.9082C217.021 27.1065 216.93 27.3056 216.844 27.5039L220.169 24.5996C229.383 16.5489 242.353 28.6322 234.974 38.3926C234.829 38.5844 234.694 38.779 234.564 38.9736L238.203 36.6992C248.342 30.3593 258.923 44.1202 250.191 52.29C250.039 52.4323 249.894 52.5781 249.754 52.7246L253.111 51.2744C263.89 46.6152 272.07 61.6062 262.318 68.1484C262.209 68.2219 262.102 68.2971 261.997 68.3731L264.514 67.6943C275.715 64.6704 281.527 80.5376 271.022 85.4639C271.011 85.4689 271 85.4744 270.989 85.4795L272.201 85.3291C283.578 83.9143 287.09 100.138 276.314 103.63C286.676 104.757 288.386 119.894 278.152 122.191C288.386 124.488 286.675 139.625 276.314 140.753C287.09 144.244 283.578 160.468 272.201 159.054L270.986 158.902C270.998 158.908 271.01 158.914 271.022 158.92C281.527 163.846 275.715 179.713 264.514 176.688L261.997 176.009C262.102 176.085 262.209 176.161 262.318 176.234C272.07 182.777 263.89 197.769 253.111 193.109L249.753 191.657C249.894 191.804 250.039 191.95 250.191 192.093C258.923 200.263 248.342 214.024 238.203 207.685L234.564 205.408C234.693 205.603 234.828 205.798 234.974 205.99C242.353 215.751 229.383 227.834 220.169 219.783L216.844 216.878C216.93 217.077 217.021 217.276 217.121 217.475C222.762 228.694 207.524 238.562 199.594 228.826L197.086 225.747C197.121 225.89 197.159 226.034 197.199 226.178C198.807 231.868 196.056 236.433 192.007 238.621V293.708C192.546 294.286 192.966 294.947 193.243 295.687C195.003 300.378 190.374 306.453 182.904 309.255C175.435 312.056 167.952 310.524 166.192 305.832C164.433 301.14 169.063 295.066 176.532 292.265C177.698 291.828 178.863 291.495 180.007 291.265V237.717C178.968 236.86 178.036 235.751 177.271 234.363L175.854 231.795C175.855 231.812 175.856 231.83 175.857 231.848C176.897 245.005 158.245 248.729 154.152 236.181L153.716 234.844C151.75 247.563 133.262 247.563 131.297 234.843L130.861 236.181C126.769 248.729 108.117 245.005 109.156 231.848C109.158 231.83 109.158 231.812 109.159 231.795L107.743 234.363C107.513 234.78 107.265 235.17 107.007 235.538V293.708C107.546 294.286 107.966 294.947 108.243 295.687C110.003 300.378 105.374 306.453 97.9043 309.255C90.4345 312.056 82.9521 310.524 81.1924 305.832C79.433 301.14 84.0626 295.066 91.5323 292.265C92.6975 291.828 93.8628 291.495 95.0069 291.265V239.475C89.9328 237.847 85.9532 232.765 87.8145 226.178C87.8551 226.034 87.892 225.89 87.9268 225.747L85.42 228.826C77.4896 238.563 62.2519 228.694 67.8926 217.475C67.9924 217.276 68.0826 217.076 68.169 216.878L64.8448 219.783C55.6306 227.834 42.6596 215.751 50.0391 205.99C50.1841 205.798 50.3192 205.604 50.4483 205.409L46.8106 207.685C36.6719 214.025 26.0906 200.263 34.8223 192.093C34.9746 191.95 35.1193 191.804 35.2598 191.657L31.9014 193.109C21.1228 197.768 12.9431 182.777 22.6944 176.234C22.804 176.161 22.9105 176.085 23.0157 176.009L20.5 176.688C9.29842 179.713 3.48677 163.846 13.9912 158.92C14.0027 158.915 14.014 158.908 14.0254 158.902L12.8116 159.054C1.43518 160.468 -2.07629 144.245 8.6973 140.753C-1.66207 139.624 -3.37181 124.489 6.86039 122.191C-3.37172 119.894 -1.66208 104.759 8.6973 103.63C-2.07612 100.137 1.43527 83.9147 12.8116 85.3291L14.0225 85.4795C14.0121 85.4746 14.0017 85.4688 13.9912 85.4639C3.48647 80.5375 9.29834 64.6702 20.5 67.6943L23.0157 68.3731C22.9107 68.2972 22.8038 68.2218 22.6944 68.1484C12.9433 61.6061 21.1227 46.6152 31.9014 51.2744L35.2588 52.7246C35.1186 52.5782 34.9742 52.4322 34.8223 52.29C26.0905 44.1202 36.6719 30.359 46.8106 36.6992L50.4483 38.9736C50.3192 38.7791 50.184 38.5843 50.0391 38.3926C42.6601 28.6322 55.6307 16.5487 64.8448 24.5996L68.169 27.5039C68.0827 27.3057 67.9922 27.1064 67.8926 26.9082C62.2519 15.689 77.4896 5.82111 85.42 15.5576L87.9268 18.6348C87.8921 18.4924 87.855 18.3494 87.8145 18.2061C84.3091 5.80003 101.517 -1.2678 107.743 10.0205L109.159 12.5869C109.158 12.5698 109.158 12.5523 109.156 12.5352C108.117 -0.622276 126.769 -4.34564 130.861 8.20215L131.297 9.53907Z"/>
</mask>
<path d="M131.297 9.53907C133.263 -3.17972 151.75 -3.17966 153.716 9.53907L154.152 8.20215C158.245 -4.34551 176.896 -0.622224 175.857 12.5352C175.856 12.5524 175.855 12.5698 175.854 12.5869L177.271 10.0205C183.497 -1.26775 200.705 5.80004 197.199 18.2061C197.159 18.3495 197.121 18.4923 197.086 18.6348L199.594 15.5576C207.524 5.82112 222.762 15.689 217.121 26.9082C217.021 27.1065 216.93 27.3056 216.844 27.5039L220.169 24.5996C229.383 16.5489 242.353 28.6322 234.974 38.3926C234.829 38.5844 234.694 38.779 234.564 38.9736L238.203 36.6992C248.342 30.3593 258.923 44.1202 250.191 52.29C250.039 52.4323 249.894 52.5781 249.754 52.7246L253.111 51.2744C263.89 46.6152 272.07 61.6062 262.318 68.1484C262.209 68.2219 262.102 68.2971 261.997 68.3731L264.514 67.6943C275.715 64.6704 281.527 80.5376 271.022 85.4639C271.011 85.4689 271 85.4744 270.989 85.4795L272.201 85.3291C283.578 83.9143 287.09 100.138 276.314 103.63C286.676 104.757 288.386 119.894 278.152 122.191C288.386 124.488 286.675 139.625 276.314 140.753C287.09 144.244 283.578 160.468 272.201 159.054L270.986 158.902C270.998 158.908 271.01 158.914 271.022 158.92C281.527 163.846 275.715 179.713 264.514 176.688L261.997 176.009C262.102 176.085 262.209 176.161 262.318 176.234C272.07 182.777 263.89 197.769 253.111 193.109L249.753 191.657C249.894 191.804 250.039 191.95 250.191 192.093C258.923 200.263 248.342 214.024 238.203 207.685L234.564 205.408C234.693 205.603 234.828 205.798 234.974 205.99C242.353 215.751 229.383 227.834 220.169 219.783L216.844 216.878C216.93 217.077 217.021 217.276 217.121 217.475C222.762 228.694 207.524 238.562 199.594 228.826L197.086 225.747C197.121 225.89 197.159 226.034 197.199 226.178C198.807 231.868 196.056 236.433 192.007 238.621V293.708C192.546 294.286 192.966 294.947 193.243 295.687C195.003 300.378 190.374 306.453 182.904 309.255C175.435 312.056 167.952 310.524 166.192 305.832C164.433 301.14 169.063 295.066 176.532 292.265C177.698 291.828 178.863 291.495 180.007 291.265V237.717C178.968 236.86 178.036 235.751 177.271 234.363L175.854 231.795C175.855 231.812 175.856 231.83 175.857 231.848C176.897 245.005 158.245 248.729 154.152 236.181L153.716 234.844C151.75 247.563 133.262 247.563 131.297 234.843L130.861 236.181C126.769 248.729 108.117 245.005 109.156 231.848C109.158 231.83 109.158 231.812 109.159 231.795L107.743 234.363C107.513 234.78 107.265 235.17 107.007 235.538V293.708C107.546 294.286 107.966 294.947 108.243 295.687C110.003 300.378 105.374 306.453 97.9043 309.255C90.4345 312.056 82.9521 310.524 81.1924 305.832C79.433 301.14 84.0626 295.066 91.5323 292.265C92.6975 291.828 93.8628 291.495 95.0069 291.265V239.475C89.9328 237.847 85.9532 232.765 87.8145 226.178C87.8551 226.034 87.892 225.89 87.9268 225.747L85.42 228.826C77.4896 238.563 62.2519 228.694 67.8926 217.475C67.9924 217.276 68.0826 217.076 68.169 216.878L64.8448 219.783C55.6306 227.834 42.6596 215.751 50.0391 205.99C50.1841 205.798 50.3192 205.604 50.4483 205.409L46.8106 207.685C36.6719 214.025 26.0906 200.263 34.8223 192.093C34.9746 191.95 35.1193 191.804 35.2598 191.657L31.9014 193.109C21.1228 197.768 12.9431 182.777 22.6944 176.234C22.804 176.161 22.9105 176.085 23.0157 176.009L20.5 176.688C9.29842 179.713 3.48677 163.846 13.9912 158.92C14.0027 158.915 14.014 158.908 14.0254 158.902L12.8116 159.054C1.43518 160.468 -2.07629 144.245 8.6973 140.753C-1.66207 139.624 -3.37181 124.489 6.86039 122.191C-3.37172 119.894 -1.66208 104.759 8.6973 103.63C-2.07612 100.137 1.43527 83.9147 12.8116 85.3291L14.0225 85.4795C14.0121 85.4746 14.0017 85.4688 13.9912 85.4639C3.48647 80.5375 9.29834 64.6702 20.5 67.6943L23.0157 68.3731C22.9107 68.2972 22.8038 68.2218 22.6944 68.1484C12.9433 61.6061 21.1227 46.6152 31.9014 51.2744L35.2588 52.7246C35.1186 52.5782 34.9742 52.4322 34.8223 52.29C26.0905 44.1202 36.6719 30.359 46.8106 36.6992L50.4483 38.9736C50.3192 38.7791 50.184 38.5843 50.0391 38.3926C42.6601 28.6322 55.6307 16.5487 64.8448 24.5996L68.169 27.5039C68.0827 27.3057 67.9922 27.1064 67.8926 26.9082C62.2519 15.689 77.4896 5.82111 85.42 15.5576L87.9268 18.6348C87.8921 18.4924 87.855 18.3494 87.8145 18.2061C84.3091 5.80003 101.517 -1.2678 107.743 10.0205L109.159 12.5869C109.158 12.5698 109.158 12.5523 109.156 12.5352C108.117 -0.622276 126.769 -4.34564 130.861 8.20215L131.297 9.53907Z" fill="#DC83F5"/>
<path d="M131.297 9.53907L130.346 9.84883L132.285 9.69183L131.297 9.53907ZM153.716 9.53907L152.728 9.69184L154.666 9.84946L153.716 9.53907ZM154.152 8.20215L155.103 8.51254L155.103 8.51224L154.152 8.20215ZM175.857 12.5352L176.854 12.6139V12.6139L175.857 12.5352ZM175.854 12.5869L174.856 12.5123L176.729 13.0703L175.854 12.5869ZM177.271 10.0205L178.146 10.5039L178.146 10.5035L177.271 10.0205ZM197.199 18.2061L196.237 17.9341V17.9342L197.199 18.2061ZM197.086 18.6348L196.114 18.3979L197.861 19.2665L197.086 18.6348ZM199.594 15.5576L200.369 16.1894L200.369 16.1891L199.594 15.5576ZM217.121 26.9082L218.015 27.3574L217.121 26.9082ZM216.844 27.5039L215.927 27.1049L217.502 28.2571L216.844 27.5039ZM220.169 24.5996L220.827 25.3528L220.827 25.3527L220.169 24.5996ZM234.974 38.3926L234.176 37.7895L234.176 37.7895L234.974 38.3926ZM234.564 38.9736L233.731 38.4209L235.095 39.8216L234.564 38.9736ZM238.203 36.6992L238.733 37.5472L238.733 37.5471L238.203 36.6992ZM250.191 52.29L250.875 53.0203V53.0202L250.191 52.29ZM249.754 52.7246L249.032 52.0328L250.15 53.6426L249.754 52.7246ZM253.111 51.2744L253.508 52.1924L253.508 52.1923L253.111 51.2744ZM262.318 68.1484L261.761 67.318L261.761 67.318L262.318 68.1484ZM261.997 68.3731L261.411 67.5627L262.257 69.3386L261.997 68.3731ZM264.514 67.6943L264.774 68.6598L264.774 68.6598L264.514 67.6943ZM271.022 85.4639L270.597 84.5585L270.597 84.5585L271.022 85.4639ZM270.989 85.4795L270.562 84.5755L271.112 86.4719L270.989 85.4795ZM272.201 85.3291L272.324 86.3215L272.325 86.3215L272.201 85.3291ZM276.314 103.63L276.006 102.679L276.206 104.624L276.314 103.63ZM278.152 122.191L277.933 121.216V123.167L278.152 122.191ZM276.314 140.753L276.206 139.759L276.006 141.704L276.314 140.753ZM272.201 159.054L272.078 160.046L272.078 160.046L272.201 159.054ZM270.986 158.902L271.11 157.91L270.559 159.806L270.986 158.902ZM271.022 158.92L270.597 159.825H270.597L271.022 158.92ZM264.514 176.688L264.253 177.654L264.253 177.654L264.514 176.688ZM261.997 176.009L262.258 175.043L261.411 176.819L261.997 176.009ZM262.318 176.234L261.761 177.065L261.761 177.065L262.318 176.234ZM253.111 193.109L252.714 194.027L252.715 194.027L253.111 193.109ZM249.753 191.657L250.15 190.739L249.031 192.349L249.753 191.657ZM250.191 192.093L249.508 192.823L250.191 192.093ZM238.203 207.685L237.673 208.532L237.673 208.532L238.203 207.685ZM234.564 205.408L235.094 204.56L233.73 205.961L234.564 205.408ZM234.974 205.99L234.176 206.593L234.176 206.593L234.974 205.99ZM220.169 219.783L220.827 219.03L220.827 219.03L220.169 219.783ZM216.844 216.878L217.502 216.125L215.927 217.277L216.844 216.878ZM217.121 217.475L216.228 217.924L216.228 217.924L217.121 217.475ZM199.594 228.826L198.818 229.458L198.818 229.458L199.594 228.826ZM197.086 225.747L197.861 225.116L196.114 225.984L197.086 225.747ZM197.199 226.178L198.162 225.906V225.906L197.199 226.178ZM192.007 238.621L191.531 237.741L191.007 238.025V238.621H192.007ZM192.007 293.708H191.007V294.102L191.276 294.39L192.007 293.708ZM193.243 295.687L194.18 295.335L194.179 295.335L193.243 295.687ZM182.904 309.255L183.255 310.191L182.904 309.255ZM166.192 305.832L165.256 306.183L165.256 306.183L166.192 305.832ZM176.532 292.265L176.181 291.328H176.181L176.532 292.265ZM180.007 291.265L180.204 292.245L181.007 292.083V291.265H180.007ZM180.007 237.717H181.007V237.246L180.643 236.946L180.007 237.717ZM177.271 234.363L178.146 233.88L178.146 233.88L177.271 234.363ZM175.854 231.795L176.729 231.312L174.856 231.869L175.854 231.795ZM175.857 231.848L174.861 231.926V231.926L175.857 231.848ZM154.152 236.181L155.103 235.871L155.103 235.87L154.152 236.181ZM153.716 234.844L154.666 234.533L152.728 234.691L153.716 234.844ZM131.297 234.843L132.285 234.69L130.346 234.533L131.297 234.843ZM130.861 236.181L131.812 236.491L131.812 236.49L130.861 236.181ZM109.156 231.848L110.153 231.926V231.926L109.156 231.848ZM109.159 231.795L110.156 231.869L108.283 231.312L109.159 231.795ZM107.743 234.363L108.619 234.846L108.619 234.846L107.743 234.363ZM107.007 235.538L106.189 234.963L106.007 235.222V235.538H107.007ZM107.007 293.708H106.007V294.102L106.276 294.39L107.007 293.708ZM108.243 295.687L109.18 295.335L109.179 295.335L108.243 295.687ZM97.9043 309.255L98.2555 310.191H98.2555L97.9043 309.255ZM81.1924 305.832L80.2561 306.183L80.2561 306.183L81.1924 305.832ZM91.5323 292.265L91.1811 291.328L91.5323 292.265ZM95.0069 291.265L95.2044 292.245L96.0069 292.083V291.265H95.0069ZM95.0069 239.475H96.0069V238.745L95.3124 238.522L95.0069 239.475ZM87.8145 226.178L86.8522 225.906V225.906L87.8145 226.178ZM87.9268 225.747L88.8983 225.984L87.1513 225.116L87.9268 225.747ZM85.42 228.826L86.1953 229.458L86.1954 229.458L85.42 228.826ZM67.8926 217.475L68.786 217.924L68.7861 217.924L67.8926 217.475ZM68.169 216.878L69.086 217.277L67.5109 216.125L68.169 216.878ZM64.8448 219.783L65.5028 220.536L65.5028 220.536L64.8448 219.783ZM50.0391 205.99L50.8368 206.593H50.8368L50.0391 205.99ZM50.4483 205.409L51.2816 205.962L49.918 204.561L50.4483 205.409ZM46.8106 207.685L47.3408 208.532L47.3409 208.532L46.8106 207.685ZM34.8223 192.093L35.5055 192.823L35.5055 192.823L34.8223 192.093ZM35.2598 191.657L35.982 192.349L34.8629 190.739L35.2598 191.657ZM31.9014 193.109L32.2982 194.027L32.2983 194.027L31.9014 193.109ZM22.6944 176.234L22.1372 175.404L22.1372 175.404L22.6944 176.234ZM23.0157 176.009L23.6017 176.819L22.7548 175.043L23.0157 176.009ZM20.5 176.688L20.7607 177.654L20.7609 177.654L20.5 176.688ZM13.9912 158.92L13.5667 158.015L13.5666 158.015L13.9912 158.92ZM14.0254 158.902L14.4531 159.806L13.9017 157.91L14.0254 158.902ZM12.8116 159.054L12.9349 160.046L12.9353 160.046L12.8116 159.054ZM8.6973 140.753L9.00567 141.704L8.80563 139.759L8.6973 140.753ZM6.86039 122.191L7.07946 123.167L7.07947 121.216L6.86039 122.191ZM8.6973 103.63L8.80563 104.624L9.00568 102.679L8.6973 103.63ZM12.8116 85.3291L12.6882 86.3215L12.6883 86.3215L12.8116 85.3291ZM14.0225 85.4795L13.8993 86.4719L14.4499 84.5754L14.0225 85.4795ZM13.9912 85.4639L13.5667 86.3693L13.5667 86.3693L13.9912 85.4639ZM20.5 67.6943L20.2394 68.6598L20.2396 68.6598L20.5 67.6943ZM23.0157 68.3731L22.7552 69.3385L23.6016 67.5627L23.0157 68.3731ZM22.6944 68.1484L22.1372 68.9789L22.1372 68.9789L22.6944 68.1484ZM31.9014 51.2744L31.5046 52.1923L31.5049 52.1924L31.9014 51.2744ZM35.2588 52.7246L34.8623 53.6426L35.9809 52.0328L35.2588 52.7246ZM34.8223 52.29L35.5055 51.5598L35.5055 51.5598L34.8223 52.29ZM46.8106 36.6992L46.2804 37.5471L46.2804 37.5471L46.8106 36.6992ZM50.4483 38.9736L49.9181 39.8215L51.2816 38.4209L50.4483 38.9736ZM50.0391 38.3926L49.2414 38.9957L49.2414 38.9957L50.0391 38.3926ZM64.8448 24.5996L64.1868 25.3527L64.1868 25.3527L64.8448 24.5996ZM68.169 27.5039L67.511 28.257L69.0859 27.1049L68.169 27.5039ZM67.8926 26.9082L68.7861 26.459L68.786 26.459L67.8926 26.9082ZM85.42 15.5576L84.6446 16.1891L84.6447 16.1892L85.42 15.5576ZM87.9268 18.6348L87.1515 19.2664L88.8983 18.3978L87.9268 18.6348ZM87.8145 18.2061L88.7768 17.9342V17.9341L87.8145 18.2061ZM107.743 10.0205L106.868 10.5035L106.868 10.5036L107.743 10.0205ZM109.159 12.5869L108.284 13.07L110.156 12.5123L109.159 12.5869ZM109.156 12.5352L108.159 12.6139V12.6139L109.156 12.5352ZM130.861 8.20215L131.812 7.89239L131.812 7.89208L130.861 8.20215ZM131.297 9.53907L132.285 9.69183C134.077 -1.89727 150.936 -1.89729 152.728 9.69184L153.716 9.53907L154.704 9.3863C152.563 -4.46203 132.449 -4.46217 130.309 9.3863L131.297 9.53907ZM153.716 9.53907L154.666 9.84946L155.103 8.51254L154.152 8.20215L153.202 7.89177L152.765 9.22868L153.716 9.53907ZM154.152 8.20215L155.103 8.51224C158.828 -2.90948 175.806 0.479687 174.861 12.4565L175.857 12.5352L176.854 12.6139C177.986 -1.72413 157.662 -5.78154 153.202 7.89207L154.152 8.20215ZM175.857 12.5352L174.861 12.4564C174.859 12.4763 174.857 12.4981 174.856 12.5123L175.854 12.5869L176.851 12.6616C176.852 12.6414 176.853 12.6284 176.854 12.6139L175.857 12.5352ZM175.854 12.5869L176.729 13.0703L178.146 10.5039L177.271 10.0205L176.395 9.53716L174.978 12.1036L175.854 12.5869ZM177.271 10.0205L178.146 10.5035C183.799 0.256372 199.419 6.67226 196.237 17.9341L197.199 18.2061L198.162 18.478C201.99 4.92783 183.196 -2.79186 176.395 9.53751L177.271 10.0205ZM197.199 18.2061L196.237 17.9342C196.194 18.0872 196.152 18.2418 196.114 18.3979L197.086 18.6348L198.058 18.8717C198.089 18.7428 198.124 18.6118 198.162 18.478L197.199 18.2061ZM197.086 18.6348L197.861 19.2665L200.369 16.1894L199.594 15.5576L198.819 14.9259L196.311 18.003L197.086 18.6348ZM199.594 15.5576L200.369 16.1891C207.544 7.37956 221.331 16.3081 216.228 26.459L217.121 26.9082L218.015 27.3574C224.192 15.0699 207.504 4.26268 198.818 14.9261L199.594 15.5576ZM217.121 26.9082L216.228 26.459C216.118 26.678 216.018 26.8946 215.927 27.1049L216.844 27.5039L217.761 27.9029C217.842 27.7165 217.925 27.5349 218.015 27.3574L217.121 26.9082ZM216.844 27.5039L217.502 28.2571L220.827 25.3528L220.169 24.5996L219.511 23.8464L216.186 26.7507L216.844 27.5039ZM220.169 24.5996L220.827 25.3527C229.135 18.0935 240.83 28.9887 234.176 37.7895L234.974 38.3926L235.771 38.9957C243.876 28.2757 229.631 15.0042 219.511 23.8466L220.169 24.5996ZM234.974 38.3926L234.176 37.7895C234.015 38.0023 233.868 38.2147 233.731 38.4209L234.564 38.9736L235.398 39.5264C235.519 39.3433 235.642 39.1664 235.771 38.9957L234.974 38.3926ZM234.564 38.9736L235.095 39.8216L238.733 37.5472L238.203 36.6992L237.673 35.8513L234.034 38.1257L234.564 38.9736ZM238.203 36.6992L238.733 37.5471C247.846 31.8489 257.356 44.2169 249.508 51.5598L250.191 52.29L250.875 53.0202C260.49 44.0235 248.838 28.8698 237.673 35.8514L238.203 36.6992ZM250.191 52.29L249.508 51.5598C249.339 51.7179 249.181 51.8773 249.032 52.0328L249.754 52.7246L250.476 53.4164C250.608 53.2789 250.74 53.1467 250.875 53.0203L250.191 52.29ZM249.754 52.7246L250.15 53.6426L253.508 52.1924L253.111 51.2744L252.715 50.3564L249.357 51.8066L249.754 52.7246ZM253.111 51.2744L253.508 52.1923C263.17 48.0157 270.502 61.4537 261.761 67.318L262.318 68.1484L262.876 68.9789C273.637 61.7586 264.61 45.2146 252.715 50.3565L253.111 51.2744ZM262.318 68.1484L261.761 67.318C261.64 67.3997 261.523 67.482 261.411 67.5627L261.997 68.3731L262.583 69.1834C262.681 69.1123 262.778 69.0441 262.876 68.9788L262.318 68.1484ZM261.997 68.3731L262.257 69.3386L264.774 68.6598L264.514 67.6943L264.253 66.7288L261.737 67.4076L261.997 68.3731ZM264.514 67.6943L264.774 68.6598C274.796 65.9543 279.996 80.1508 270.597 84.5585L271.022 85.4639L271.446 86.3693C283.057 80.9245 276.634 63.3866 264.253 66.7289L264.514 67.6943ZM271.022 85.4639L270.597 84.5585C270.582 84.5655 270.569 84.572 270.564 84.5743C270.561 84.576 270.56 84.5764 270.559 84.5768C270.559 84.577 270.56 84.5765 270.562 84.5755L270.989 85.4795L271.417 86.3835C271.424 86.38 271.431 86.3768 271.436 86.3745C271.44 86.3722 271.445 86.37 271.447 86.369C271.448 86.3684 271.449 86.368 271.449 86.3677C271.45 86.3674 271.45 86.3673 271.45 86.3673C271.45 86.3673 271.449 86.3681 271.446 86.3693L271.022 85.4639ZM270.989 85.4795L271.112 86.4719L272.324 86.3215L272.201 85.3291L272.078 84.3367L270.866 84.4871L270.989 85.4795ZM272.201 85.3291L272.325 86.3215C282.482 85.0584 285.644 99.5558 276.006 102.679L276.314 103.63L276.623 104.581C288.536 100.721 284.675 82.7703 272.078 84.3368L272.201 85.3291ZM276.314 103.63L276.206 104.624C280.838 105.128 283.559 108.747 283.962 112.577C284.363 116.389 282.459 120.2 277.933 121.216L278.152 122.191L278.371 123.167C284.079 121.886 286.436 116.98 285.951 112.367C285.467 107.773 282.152 103.259 276.423 102.636L276.314 103.63ZM278.152 122.191L277.933 123.167C282.459 124.183 284.363 127.994 283.962 131.806C283.559 135.636 280.838 139.255 276.206 139.759L276.314 140.753L276.423 141.747C282.152 141.124 285.467 136.61 285.951 132.015C286.437 127.403 284.079 122.497 278.371 121.216L278.152 122.191ZM276.314 140.753L276.006 141.704C285.644 144.827 282.482 159.324 272.325 158.061L272.201 159.054L272.078 160.046C284.675 161.613 288.536 143.662 276.623 139.802L276.314 140.753ZM272.201 159.054L272.325 158.061L271.11 157.91L270.986 158.902L270.863 159.895L272.078 160.046L272.201 159.054ZM270.986 158.902L270.559 159.806C270.551 159.803 270.546 159.8 270.545 159.799C270.543 159.799 270.542 159.798 270.546 159.8C270.549 159.802 270.556 159.805 270.564 159.809C270.572 159.813 270.583 159.819 270.597 159.825L271.022 158.92L271.446 158.015C271.454 158.018 271.459 158.021 271.462 158.022C271.464 158.023 271.465 158.024 271.462 158.022C271.46 158.021 271.453 158.018 271.446 158.014C271.438 158.01 271.427 158.005 271.414 157.998L270.986 158.902ZM271.022 158.92L270.597 159.825C279.996 164.233 274.797 178.429 264.774 175.723L264.514 176.688L264.253 177.654C276.634 180.996 283.057 163.459 271.446 158.015L271.022 158.92ZM264.514 176.688L264.774 175.723L262.258 175.043L261.997 176.009L261.736 176.974L264.253 177.654L264.514 176.688ZM261.997 176.009L261.411 176.819C261.519 176.897 261.637 176.981 261.761 177.065L262.318 176.234L262.876 175.404C262.781 175.34 262.686 175.273 262.583 175.199L261.997 176.009ZM262.318 176.234L261.761 177.065C270.502 182.929 263.17 196.368 253.508 192.191L253.111 193.109L252.715 194.027C264.61 199.169 273.637 182.624 262.876 175.404L262.318 176.234ZM253.111 193.109L253.508 192.192L250.15 190.739L249.753 191.657L249.356 192.575L252.714 194.027L253.111 193.109ZM249.753 191.657L249.031 192.349C249.18 192.505 249.339 192.665 249.508 192.823L250.191 192.093L250.875 191.363C250.739 191.236 250.607 191.103 250.475 190.966L249.753 191.657ZM250.191 192.093L249.508 192.823C257.356 200.166 247.846 212.535 238.733 206.837L238.203 207.685L237.673 208.532C248.838 215.514 260.49 200.359 250.875 191.363L250.191 192.093ZM238.203 207.685L238.733 206.837L235.094 204.56L234.564 205.408L234.033 206.256L237.673 208.532L238.203 207.685ZM234.564 205.408L233.73 205.961C233.868 206.168 234.015 206.381 234.176 206.593L234.974 205.99L235.771 205.387C235.642 205.215 235.518 205.038 235.397 204.856L234.564 205.408ZM234.974 205.99L234.176 206.593C240.83 215.394 229.135 226.29 220.827 219.03L220.169 219.783L219.511 220.536C229.631 229.379 243.876 216.107 235.771 205.387L234.974 205.99ZM220.169 219.783L220.827 219.03L217.502 216.125L216.844 216.878L216.186 217.631L219.511 220.536L220.169 219.783ZM216.844 216.878L215.927 217.277C216.018 217.486 216.117 217.704 216.228 217.924L217.121 217.475L218.015 217.025C217.926 216.849 217.842 216.667 217.761 216.479L216.844 216.878ZM217.121 217.475L216.228 217.924C221.331 228.075 207.544 237.004 200.369 228.195L199.594 228.826L198.818 229.458C207.504 240.121 224.192 229.313 218.015 217.025L217.121 217.475ZM199.594 228.826L200.369 228.195L197.861 225.116L197.086 225.747L196.311 226.379L198.818 229.458L199.594 228.826ZM197.086 225.747L196.114 225.984C196.152 226.138 196.193 226.294 196.237 226.45L197.199 226.178L198.162 225.906C198.124 225.774 198.09 225.642 198.058 225.51L197.086 225.747ZM197.199 226.178L196.237 226.45C197.701 231.63 195.225 235.745 191.531 237.741L192.007 238.621L192.482 239.501C196.886 237.121 199.913 232.106 198.162 225.906L197.199 226.178ZM192.007 238.621H191.007V293.708H192.007H193.007V238.621H192.007ZM192.007 293.708L191.276 294.39C191.731 294.878 192.078 295.428 192.307 296.038L193.243 295.687L194.179 295.335C193.853 294.466 193.362 293.694 192.738 293.026L192.007 293.708ZM193.243 295.687L192.307 296.038C193.023 297.947 192.489 300.277 190.739 302.573C188.999 304.857 186.14 306.973 182.553 308.319L182.904 309.255L183.255 310.191C187.139 308.735 190.328 306.413 192.33 303.786C194.322 301.171 195.223 298.118 194.18 295.335L193.243 295.687ZM182.904 309.255L182.553 308.319C178.967 309.664 175.42 309.95 172.608 309.374C169.779 308.795 167.845 307.39 167.129 305.481L166.192 305.832L165.256 306.183C166.3 308.966 168.986 310.674 172.206 311.333C175.442 311.996 179.372 311.648 183.255 310.191L182.904 309.255ZM166.192 305.832L167.129 305.481C166.413 303.572 166.947 301.242 168.697 298.946C170.437 296.662 173.297 294.546 176.883 293.201L176.532 292.265L176.181 291.328C172.298 292.785 169.108 295.106 167.106 297.733C165.114 300.348 164.212 303.4 165.256 306.183L166.192 305.832ZM176.532 292.265L176.883 293.201C178 292.782 179.114 292.465 180.204 292.245L180.007 291.265L179.809 290.284C178.612 290.526 177.395 290.873 176.181 291.328L176.532 292.265ZM180.007 291.265H181.007V237.717H180.007H179.007V291.265H180.007ZM180.007 237.717L180.643 236.946C179.707 236.172 178.854 235.163 178.146 233.88L177.271 234.363L176.395 234.846C177.218 236.339 178.23 237.547 179.37 238.488L180.007 237.717ZM177.271 234.363L178.146 233.88L176.729 231.312L175.854 231.795L174.978 232.278L176.395 234.846L177.271 234.363ZM175.854 231.795L174.856 231.869C174.857 231.877 174.859 231.907 174.861 231.926L175.857 231.848L176.854 231.769C176.853 231.753 176.853 231.748 176.851 231.72L175.854 231.795ZM175.857 231.848L174.861 231.926C175.806 243.904 158.828 247.293 155.103 235.871L154.152 236.181L153.202 236.491C157.661 250.165 177.987 246.107 176.854 231.769L175.857 231.848ZM154.152 236.181L155.103 235.87L154.666 234.533L153.716 234.844L152.765 235.154L153.202 236.491L154.152 236.181ZM153.716 234.844L152.728 234.691C150.936 246.281 134.076 246.281 132.285 234.69L131.297 234.843L130.309 234.995C132.448 248.846 152.564 248.846 154.704 234.996L153.716 234.844ZM131.297 234.843L130.346 234.533L129.91 235.871L130.861 236.181L131.812 236.49L132.248 235.152L131.297 234.843ZM130.861 236.181L129.911 235.871C126.186 247.293 109.207 243.904 110.153 231.926L109.156 231.848L108.159 231.769C107.027 246.107 127.352 250.165 131.812 236.491L130.861 236.181ZM109.156 231.848L110.153 231.926C110.154 231.911 110.155 231.898 110.156 231.888C110.156 231.879 110.157 231.87 110.157 231.866C110.157 231.864 110.157 231.862 110.157 231.861C110.157 231.86 110.157 231.86 110.157 231.86C110.157 231.86 110.157 231.864 110.156 231.869L109.159 231.795L108.162 231.72C108.161 231.735 108.16 231.747 108.16 231.756C108.159 231.765 108.159 231.773 108.159 231.776C108.159 231.781 108.159 231.781 108.159 231.781C108.159 231.78 108.159 231.775 108.159 231.769L109.156 231.848ZM109.159 231.795L108.283 231.312L106.867 233.88L107.743 234.363L108.619 234.846L110.035 232.278L109.159 231.795ZM107.743 234.363L106.868 233.88C106.657 234.262 106.429 234.622 106.189 234.963L107.007 235.538L107.825 236.113C108.102 235.719 108.369 235.298 108.619 234.846L107.743 234.363ZM107.007 235.538H106.007V293.708H107.007H108.007V235.538H107.007ZM107.007 293.708L106.276 294.39C106.731 294.878 107.078 295.428 107.307 296.038L108.243 295.687L109.179 295.335C108.853 294.466 108.362 293.694 107.738 293.026L107.007 293.708ZM108.243 295.687L107.307 296.038C108.023 297.947 107.489 300.277 105.739 302.573C103.999 304.857 101.14 306.973 97.5532 308.319L97.9043 309.255L98.2555 310.191C102.139 308.735 105.328 306.413 107.33 303.786C109.322 301.171 110.223 298.118 109.18 295.335L108.243 295.687ZM97.9043 309.255L97.5532 308.319C93.9666 309.664 90.4205 309.95 87.6077 309.374C84.7794 308.795 82.8446 307.39 82.1287 305.481L81.1924 305.832L80.2561 306.183C81.2999 308.966 83.9862 310.674 87.2064 311.333C90.4422 311.996 94.3723 311.648 98.2555 310.191L97.9043 309.255ZM81.1924 305.832L82.1287 305.481C81.4129 303.572 81.9468 301.242 83.6968 298.946C85.4371 296.662 88.2968 294.546 91.8834 293.201L91.5323 292.265L91.1811 291.328C87.298 292.785 84.1081 295.106 82.1061 297.733C80.1137 300.348 79.2125 303.4 80.2561 306.183L81.1924 305.832ZM91.5323 292.265L91.8834 293.201C92.9997 292.782 94.1137 292.465 95.2044 292.245L95.0069 291.265L94.8093 290.284C93.6119 290.526 92.3953 290.873 91.1811 291.328L91.5323 292.265ZM95.0069 291.265H96.0069V239.475H95.0069H94.0069V291.265H95.0069ZM95.0069 239.475L95.3124 238.522C90.6538 237.028 87.0883 232.426 88.7768 226.45L87.8145 226.178L86.8522 225.906C84.8182 233.105 89.2119 238.666 94.7014 240.427L95.0069 239.475ZM87.8145 226.178L88.7768 226.45C88.8218 226.29 88.8618 226.134 88.8983 225.984L87.9268 225.747L86.9552 225.51C86.9221 225.646 86.8884 225.777 86.8522 225.906L87.8145 226.178ZM87.9268 225.747L87.1513 225.116L84.6445 228.195L85.42 228.826L86.1954 229.458L88.7023 226.378L87.9268 225.747ZM85.42 228.826L84.6446 228.195C77.4696 237.004 63.6822 228.075 68.786 217.924L67.8926 217.475L66.9992 217.025C60.8215 229.313 77.5097 240.121 86.1953 229.458L85.42 228.826ZM67.8926 217.475L68.7861 217.924C68.8976 217.702 68.9962 217.483 69.086 217.277L68.169 216.878L67.252 216.479C67.169 216.67 67.0871 216.851 66.9992 217.025L67.8926 217.475ZM68.169 216.878L67.5109 216.125L64.1867 219.03L64.8448 219.783L65.5028 220.536L68.827 217.631L68.169 216.878ZM64.8448 219.783L64.1868 219.03C55.8784 226.29 44.1829 215.394 50.8368 206.593L50.0391 205.99L49.2414 205.387C41.1363 216.107 55.3827 229.379 65.5028 220.536L64.8448 219.783ZM50.0391 205.99L50.8368 206.593C50.9977 206.381 51.1448 206.168 51.2816 205.962L50.4483 205.409L49.6149 204.856C49.4935 205.04 49.3705 205.216 49.2414 205.387L50.0391 205.99ZM50.4483 205.409L49.918 204.561L46.2803 206.837L46.8106 207.685L47.3409 208.532L50.9786 206.257L50.4483 205.409ZM46.8106 207.685L46.2804 206.837C37.1682 212.535 27.6573 200.166 35.5055 192.823L34.8223 192.093L34.1391 191.363C24.5238 200.359 36.1757 215.514 47.3408 208.532L46.8106 207.685ZM34.8223 192.093L35.5055 192.823C35.676 192.663 35.8345 192.503 35.982 192.349L35.2598 191.657L34.5376 190.966C34.4041 191.105 34.2732 191.237 34.1391 191.363L34.8223 192.093ZM35.2598 191.657L34.8629 190.739L31.5045 192.192L31.9014 193.109L32.2983 194.027L35.6567 192.575L35.2598 191.657ZM31.9014 193.109L31.5046 192.191C21.8427 196.368 14.5106 182.929 23.2515 177.065L22.6944 176.234L22.1372 175.404C11.3756 182.624 20.4028 199.169 32.2982 194.027L31.9014 193.109ZM22.6944 176.234L23.2515 177.065C23.376 176.981 23.4939 176.897 23.6017 176.819L23.0157 176.009L22.4296 175.198C22.3271 175.273 22.232 175.34 22.1372 175.404L22.6944 176.234ZM23.0157 176.009L22.7548 175.043L20.2392 175.723L20.5 176.688L20.7609 177.654L23.2765 176.974L23.0157 176.009ZM20.5 176.688L20.2394 175.723C10.217 178.429 5.01753 164.233 14.4159 159.825L13.9912 158.92L13.5666 158.015C1.95601 163.46 8.37987 180.996 20.7607 177.654L20.5 176.688ZM13.9912 158.92L14.4158 159.825C14.4345 159.817 14.4499 159.809 14.4602 159.803C14.47 159.798 14.4786 159.794 14.4808 159.793C14.4849 159.79 14.4822 159.792 14.4788 159.794C14.4747 159.796 14.4655 159.8 14.4531 159.806L14.0254 158.902L13.5978 157.998C13.5796 158.007 13.5647 158.015 13.555 158.02C13.5458 158.024 13.5375 158.029 13.5359 158.03C13.5324 158.032 13.5354 158.03 13.5394 158.028C13.544 158.026 13.5537 158.021 13.5667 158.015L13.9912 158.92ZM14.0254 158.902L13.9017 157.91L12.6878 158.061L12.8116 159.054L12.9353 160.046L14.1492 159.895L14.0254 158.902ZM12.8116 159.054L12.6882 158.061C2.53162 159.324 -0.630484 144.828 9.00567 141.704L8.6973 140.753L8.38894 139.802C-3.52209 143.663 0.338746 161.612 12.9349 160.046L12.8116 159.054ZM8.6973 140.753L8.80563 139.759C4.17479 139.254 1.45464 135.636 1.05152 131.806C0.650315 127.994 2.55464 124.183 7.07946 123.167L6.86039 122.191L6.64132 121.216C0.933942 122.497 -1.42296 127.403 -0.937498 132.015C-0.453956 136.609 2.86045 141.123 8.58897 141.747L8.6973 140.753ZM6.86039 122.191L7.07947 121.216C2.55468 120.2 0.650353 116.389 1.05154 112.577C1.45465 108.747 4.17478 105.129 8.80563 104.624L8.6973 103.63L8.58898 102.636C2.86044 103.26 -0.453941 107.774 -0.93747 112.368C-1.42292 116.98 0.933981 121.886 6.64131 123.167L6.86039 122.191ZM8.6973 103.63L9.00568 102.679C-0.630385 99.5549 2.53176 85.0588 12.6882 86.3215L12.8116 85.3291L12.9349 84.3367C0.338768 82.7707 -3.52186 100.72 8.38893 104.581L8.6973 103.63ZM12.8116 85.3291L12.6883 86.3215L13.8993 86.4719L14.0225 85.4795L14.1457 84.4871L12.9348 84.3367L12.8116 85.3291ZM14.0225 85.4795L14.4499 84.5754C14.4576 84.5791 14.4631 84.5818 14.4652 84.5829C14.4669 84.5837 14.468 84.5843 14.4645 84.5825C14.4623 84.5814 14.4556 84.578 14.4482 84.5742C14.4404 84.5703 14.4292 84.5647 14.4158 84.5585L13.9912 85.4639L13.5667 86.3693C13.5585 86.3655 13.5526 86.3625 13.55 86.3612C13.5477 86.36 13.5463 86.3593 13.5493 86.3608C13.5509 86.3617 13.5573 86.365 13.5642 86.3684C13.5715 86.3721 13.5822 86.3775 13.5951 86.3836L14.0225 85.4795ZM13.9912 85.4639L14.4158 84.5585C5.01717 80.1508 10.217 65.954 20.2394 68.6598L20.5 67.6943L20.7607 66.7289C8.37972 63.3864 1.95577 80.9241 13.5667 86.3693L13.9912 85.4639ZM20.5 67.6943L20.2396 68.6598L22.7552 69.3385L23.0157 68.3731L23.2761 67.4076L20.7605 66.7289L20.5 67.6943ZM23.0157 68.3731L23.6016 67.5627C23.4901 67.4821 23.3732 67.3997 23.2515 67.318L22.6944 68.1484L22.1372 68.9789C22.2343 69.044 22.3314 69.1123 22.4297 69.1834L23.0157 68.3731ZM22.6944 68.1484L23.2515 67.318C14.5108 61.4536 21.8427 48.0159 31.5046 52.1923L31.9014 51.2744L32.2982 50.3565C20.4028 45.2146 11.3759 61.7587 22.1372 68.9789L22.6944 68.1484ZM31.9014 51.2744L31.5049 52.1924L34.8623 53.6426L35.2588 52.7246L35.6554 51.8066L32.2979 50.3564L31.9014 51.2744ZM35.2588 52.7246L35.9809 52.0328C35.8338 51.8793 35.6757 51.7191 35.5055 51.5598L34.8223 52.29L34.1391 53.0203C34.2728 53.1453 34.4033 53.2771 34.5367 53.4164L35.2588 52.7246ZM34.8223 52.29L35.5055 51.5598C27.6575 44.2169 37.1678 31.8486 46.2804 37.5471L46.8106 36.6992L47.3408 35.8514C36.176 28.8695 24.5235 44.0235 34.1391 53.0203L34.8223 52.29ZM46.8106 36.6992L46.2804 37.5471L49.9181 39.8215L50.4483 38.9736L50.9784 38.1257L47.3407 35.8513L46.8106 36.6992ZM50.4483 38.9736L51.2816 38.4209C51.1449 38.2148 50.9976 38.0022 50.8368 37.7895L50.0391 38.3926L49.2414 38.9957C49.3705 39.1663 49.4935 39.3433 49.6149 39.5264L50.4483 38.9736ZM50.0391 38.3926L50.8368 37.7895C44.1832 28.9888 55.8786 18.0933 64.1868 25.3527L64.8448 24.5996L65.5027 23.8466C55.3827 15.0041 41.1369 28.2756 49.2414 38.9957L50.0391 38.3926ZM64.8448 24.5996L64.1868 25.3527L67.511 28.257L68.169 27.5039L68.8269 26.7508L65.5027 23.8465L64.8448 24.5996ZM68.169 27.5039L69.0859 27.1049C68.9957 26.8976 68.8971 26.6799 68.7861 26.459L67.8926 26.9082L66.9992 27.3574C67.0874 27.5328 67.1697 27.7137 67.252 27.9029L68.169 27.5039ZM67.8926 26.9082L68.786 26.459C63.6824 16.3081 77.4693 7.37955 84.6446 16.1891L85.42 15.5576L86.1953 14.9261C77.51 4.26267 60.8213 15.0699 66.9992 27.3574L67.8926 26.9082ZM85.42 15.5576L84.6447 16.1892L87.1515 19.2664L87.9268 18.6348L88.7021 18.0032L86.1953 14.926L85.42 15.5576ZM87.9268 18.6348L88.8983 18.3978C88.8613 18.2461 88.8212 18.0912 88.7768 17.9342L87.8145 18.2061L86.8522 18.478C86.8888 18.6076 86.9228 18.7388 86.9553 18.8717L87.9268 18.6348ZM87.8145 18.2061L88.7768 17.9341C85.5947 6.67222 101.215 0.256342 106.868 10.5035L107.743 10.0205L108.619 9.53752C101.818 -2.79194 83.0235 4.92783 86.8522 18.478L87.8145 18.2061ZM107.743 10.0205L106.868 10.5036L108.284 13.07L109.159 12.5869L110.035 12.1038L108.619 9.53742L107.743 10.0205ZM109.159 12.5869L110.156 12.5123C110.157 12.5175 110.157 12.5209 110.157 12.521C110.157 12.5212 110.157 12.5208 110.157 12.5197C110.157 12.5184 110.157 12.5171 110.157 12.5146C110.157 12.5105 110.156 12.5022 110.156 12.4931C110.155 12.4836 110.154 12.471 110.153 12.4564L109.156 12.5352L108.159 12.6139C108.159 12.6079 108.159 12.6039 108.159 12.6031C108.159 12.6026 108.159 12.603 108.159 12.6075C108.159 12.6108 108.159 12.6187 108.16 12.627C108.16 12.6358 108.161 12.6477 108.162 12.6616L109.159 12.5869ZM109.156 12.5352L110.153 12.4565C109.208 0.47959 126.185 -2.90956 129.911 8.51223L130.861 8.20215L131.812 7.89208C127.352 -5.78172 107.027 -1.72414 108.159 12.6139L109.156 12.5352ZM130.861 8.20215L129.911 8.51192L130.346 9.84883L131.297 9.53907L132.248 9.22931L131.812 7.89239L130.861 8.20215Z" fill="black" mask="url(#path-1-inside-1_2_7)"/>
<path d="M105.5 78.5C112.321 78.5 118.559 82.6746 123.114 89.5527C127.667 96.4271 130.5 105.953 130.5 116.5C130.5 127.047 127.667 136.573 123.114 143.447C118.559 150.325 112.321 154.5 105.5 154.5C98.6791 154.5 92.4414 150.325 87.8857 143.447C83.3326 136.573 80.5 127.047 80.5 116.5C80.5 105.953 83.3326 96.4271 87.8857 89.5527C92.4414 82.6746 98.6791 78.5 105.5 78.5Z" fill="white" stroke="black"/>
<path d="M181.5 78.5C188.321 78.5 194.559 82.6746 199.114 89.5527C203.667 96.4271 206.5 105.953 206.5 116.5C206.5 127.047 203.667 136.573 199.114 143.447C194.559 150.325 188.321 154.5 181.5 154.5C174.679 154.5 168.441 150.325 163.886 143.447C159.333 136.573 156.5 127.047 156.5 116.5C156.5 105.953 159.333 96.4271 163.886 89.5527C168.441 82.6746 174.679 78.5 181.5 78.5Z" fill="white" stroke="black"/>
<circle cx="187" cy="124" r="14.5" fill="black" stroke="black"/>
<circle cx="113" cy="123" r="14.5" fill="black" stroke="black"/>
</svg>
