<svg width="400" height="135" viewBox="0 0 400 135" fill="none" xmlns="http://www.w3.org/2000/svg">
<path fill-rule="evenodd" clip-rule="evenodd" d="M322.498 0.912019C304.33 4.70302 288.349 17.694 266.631 46.321C252.183 65.367 239.442 78.731 235.731 78.731C234.418 78.731 231.765 75.678 229.838 71.945C223.972 60.589 208.317 44.723 195.594 37.231C178.336 27.072 160.114 22.043 140.174 21.938C124.991 21.856 122.926 22.307 110.183 28.501C95.738 35.521 83.874 38.309 79.878 35.622C77.959 34.334 77.89 32.473 79.536 26.362C82.194 16.483 78.632 9.96501 70.574 9.96501C65.325 9.96501 58.281 16.93 55.477 24.895C54.283 28.288 50.632 29.281 50.632 26.214C50.632 25.197 48.6015 23.438 46.1187 22.307C39.9687 19.502 34.3576 24.475 34.3576 32.725C34.3576 37.783 33.5077 38.926 28.4806 40.626C22.063 42.794 0 62.897 0 66.576C0 67.832 2.4249 71.804 5.3905 75.403C11.1409 82.383 14.913 83.624 35.5927 85.34C46.3195 86.23 47.144 86.661 55.936 95.962C60.976 101.295 65.099 107.263 65.099 109.225C65.099 113.043 56.612 121.167 50.641 123.063C46.1748 124.482 45.8873 127.488 50.18 127.877C56.393 128.441 60.039 127.529 70.185 122.879C89.048 114.234 100.284 110.655 108.641 110.631C125.082 110.586 135.544 119.209 129.51 127.83C127.899 130.132 126.581 132.605 126.581 133.327C126.581 135.796 140.911 134.149 141.439 131.621C141.783 129.983 145.537 128.972 152.801 128.557C163.461 127.949 179.262 122.546 181.641 118.693C183.168 116.221 201.927 116.103 203.44 118.555C204.061 119.558 203.091 120.837 201.287 121.4C192.07 124.276 189.945 128.123 197.025 129.124C206.127 130.408 214.952 126.1 218.842 118.47C220.851 114.529 223.303 111.304 224.292 111.304C226.91 111.304 233.255 100.206 233.263 95.611C233.268 92.772 234.925 91.132 239.225 89.712C247.073 87.12 260.228 73.212 277.286 49.468C300.39 17.309 314.377 7.66701 338.151 7.51001C348.185 7.44301 353.889 8.40402 360.071 11.203C370.529 15.935 381.26 27.545 384.112 32.629C385.49 35.49 398.726 59.857 399.768 59.857C401.849 59.857 389.349 31.963 385.49 24.366C382.156 17.799 369.791 8.41302 360.737 4.52902C351.469 0.553023 332.713 -1.22198 322.498 0.912019ZM155.965 113.288C160.689 114.6 164.555 116.206 164.555 116.858C164.555 118.483 144.269 126.689 142.273 125.455C141.39 124.91 141.047 117.649 141.047 114.605C141.047 110.193 141.689 109.257 144.211 109.987C145.953 110.49 151.242 111.976 155.965 113.288Z" fill="#85858C"/>
</svg>
