<svg width="783" height="647" viewBox="0 0 783 647" fill="none" xmlns="http://www.w3.org/2000/svg">
<mask id="path-1-inside-1_5_24" fill="white">
<path d="M528 222C583.228 222 628 266.772 628 322V547C628 602.228 583.228 647 528 647H255C199.772 647 155 602.228 155 547V322C155 266.772 199.772 222 255 222H528ZM347 470C341.477 470 337 474.477 337 480V622C337 627.523 341.477 632 347 632H437C442.523 632 447 627.523 447 622V480C447 474.477 442.523 470 437 470H347ZM207 329C201.477 329 197 333.477 197 339V434C197 439.523 201.477 444 207 444H297C302.523 444 307 439.523 307 434V339C307 333.477 302.523 329 297 329H207Z"/>
</mask>
<path d="M528 222C583.228 222 628 266.772 628 322V547C628 602.228 583.228 647 528 647H255C199.772 647 155 602.228 155 547V322C155 266.772 199.772 222 255 222H528ZM347 470C341.477 470 337 474.477 337 480V622C337 627.523 341.477 632 347 632H437C442.523 632 447 627.523 447 622V480C447 474.477 442.523 470 437 470H347ZM207 329C201.477 329 197 333.477 197 339V434C197 439.523 201.477 444 207 444H297C302.523 444 307 439.523 307 434V339C307 333.477 302.523 329 297 329H207Z" fill="#F50808"/>
<path d="M628 322L631 322L628 322ZM155 547L152 547L155 547ZM347 470L347 467H347L347 470ZM337 480L334 480V480H337ZM337 622L334 622L337 622ZM437 632L437 635H437L437 632ZM447 622L450 622V622H447ZM447 480L450 480L447 480ZM207 329L207 326H207L207 329ZM197 434L194 434V434L197 434ZM297 444L297 447H297L297 444ZM307 339L310 339V339L307 339ZM528 222V225C581.572 225 625 268.428 625 322L628 322L631 322C631 265.115 584.885 219 528 219V222ZM628 322H625V547H628H631V322H628ZM628 547H625C625 600.572 581.572 644 528 644V647V650C584.885 650 631 603.885 631 547H628ZM528 647V644H255V647V650H528V647ZM255 647V644C201.428 644 158 600.572 158 547L155 547L152 547C152 603.885 198.115 650 255 650V647ZM155 547H158V322H155H152V547H155ZM155 322H158C158 268.428 201.428 225 255 225V222V219C198.115 219 152 265.115 152 322H155ZM255 222V225H528V222V219H255V222ZM347 470L347 467C339.82 467 334 472.82 334 480L337 480L340 480C340 476.134 343.134 473 347 473L347 470ZM337 480H334V622H337H340V480H337ZM337 622L334 622C334 629.18 339.82 635 347 635V632V629C343.134 629 340 625.866 340 622L337 622ZM347 632V635H437V632V629H347V632ZM437 632L437 635C444.18 635 450 629.18 450 622L447 622L444 622C444 625.866 440.866 629 437 629L437 632ZM447 622H450V480H447H444V622H447ZM447 480L450 480C450 472.82 444.18 467 437 467V470V473C440.866 473 444 476.134 444 480L447 480ZM437 470V467H347V470V473H437V470ZM207 329L207 326C199.82 326 194 331.82 194 339H197H200C200 335.134 203.134 332 207 332L207 329ZM197 339H194V434H197H200V339H197ZM197 434L194 434C194 441.18 199.82 447 207 447V444V441C203.134 441 200 437.866 200 434L197 434ZM207 444V447H297V444V441H207V444ZM297 444L297 447C304.18 447 310 441.18 310 434H307H304C304 437.866 300.866 441 297 441L297 444ZM307 434H310V339H307H304V434H307ZM307 339L310 339C310 331.82 304.18 326 297 326V329V332C300.866 332 304 335.134 304 339L307 339ZM297 329V326H207V329V332H297V329Z" fill="black" mask="url(#path-1-inside-1_5_24)"/>
<path d="M378.94 13.6562C386.03 7.1006 396.97 7.10061 404.06 13.6562L692.02 279.917C704.379 291.345 696.293 312 679.46 312H103.54C86.7072 312 78.6215 291.345 90.9805 279.917L378.94 13.6562Z" fill="#FF7878" stroke="black" stroke-width="3"/>
</svg>
