<svg width="153" height="319" viewBox="0 0 153 319" fill="none" xmlns="http://www.w3.org/2000/svg">
<mask id="path-1-inside-1_2_8" fill="white">
<path d="M76.5067 14.983C118.757 14.983 153.007 66.2464 153.007 129.483C153.007 165.856 141.674 198.267 124.007 219.241V301.5C124.546 302.078 124.966 302.739 125.243 303.478C127.003 308.17 122.374 314.245 114.904 317.046C107.435 319.848 99.953 318.315 98.1932 313.624C96.4336 308.932 101.062 302.857 108.532 300.055C109.697 299.618 110.863 299.287 112.007 299.056V230.932C101.397 239.267 89.3203 243.983 76.5067 243.983C62.8807 243.983 50.088 238.649 39.0067 229.303V301.5C39.5461 302.078 39.9656 302.739 40.243 303.478C42.0027 308.17 37.374 314.245 29.9042 317.046C22.4346 319.848 14.953 318.315 13.1932 313.624C11.4336 308.932 16.0623 302.857 23.5321 300.055C24.6973 299.618 25.8627 299.287 27.0067 299.056V216.784C10.4885 195.781 0.00671387 164.464 0.00671387 129.483C0.00671387 66.2464 34.2569 14.983 76.5067 14.983Z"/>
</mask>
<path d="M76.5067 14.983C118.757 14.983 153.007 66.2464 153.007 129.483C153.007 165.856 141.674 198.267 124.007 219.241V301.5C124.546 302.078 124.966 302.739 125.243 303.478C127.003 308.17 122.374 314.245 114.904 317.046C107.435 319.848 99.953 318.315 98.1932 313.624C96.4336 308.932 101.062 302.857 108.532 300.055C109.697 299.618 110.863 299.287 112.007 299.056V230.932C101.397 239.267 89.3203 243.983 76.5067 243.983C62.8807 243.983 50.088 238.649 39.0067 229.303V301.5C39.5461 302.078 39.9656 302.739 40.243 303.478C42.0027 308.17 37.374 314.245 29.9042 317.046C22.4346 319.848 14.953 318.315 13.1932 313.624C11.4336 308.932 16.0623 302.857 23.5321 300.055C24.6973 299.618 25.8627 299.287 27.0067 299.056V216.784C10.4885 195.781 0.00671387 164.464 0.00671387 129.483C0.00671387 66.2464 34.2569 14.983 76.5067 14.983Z" fill="#FFF8F8"/>
<path d="M124.007 219.241L123.242 218.597L123.007 218.876V219.241H124.007ZM124.007 301.5H123.007V301.894L123.276 302.182L124.007 301.5ZM125.243 303.478L126.179 303.127L126.179 303.127L125.243 303.478ZM114.904 317.046L115.255 317.983L114.904 317.046ZM98.1932 313.624L97.2569 313.975L97.2569 313.975L98.1932 313.624ZM108.532 300.055L108.181 299.119H108.181L108.532 300.055ZM112.007 299.056L112.204 300.037L113.007 299.875V299.056H112.007ZM112.007 230.932H113.007V228.875L111.389 230.146L112.007 230.932ZM39.0067 229.303L39.6514 228.539L38.0067 227.152V229.303H39.0067ZM39.0067 301.5H38.0067V301.894L38.2756 302.182L39.0067 301.5ZM40.243 303.478L41.1794 303.127L41.1793 303.127L40.243 303.478ZM29.9042 317.046L30.2553 317.983H30.2553L29.9042 317.046ZM13.1932 313.624L12.2569 313.975L12.2569 313.975L13.1932 313.624ZM23.5321 300.055L23.181 299.119H23.1809L23.5321 300.055ZM27.0067 299.056L27.2043 300.037L28.0067 299.875V299.056H27.0067ZM27.0067 216.784H28.0067V216.438L27.7927 216.166L27.0067 216.784ZM76.5067 14.983V15.983C97.1942 15.983 116.045 28.5335 129.769 49.0748C143.488 69.6094 152.007 98.035 152.007 129.483H153.007H154.007C154.007 97.6944 145.4 68.87 131.432 47.9637C117.468 27.0642 98.069 13.983 76.5067 13.983V14.983ZM153.007 129.483H152.007C152.007 165.666 140.73 197.836 123.242 218.597L124.007 219.241L124.772 219.885C142.618 198.699 154.007 166.046 154.007 129.483H153.007ZM124.007 219.241H123.007V301.5H124.007H125.007V219.241H124.007ZM124.007 301.5L123.276 302.182C123.731 302.669 124.078 303.219 124.307 303.829L125.243 303.478L126.179 303.127C125.853 302.258 125.361 301.486 124.738 300.817L124.007 301.5ZM125.243 303.478L124.307 303.829C125.023 305.738 124.489 308.069 122.739 310.365C120.999 312.649 118.14 314.765 114.553 316.11L114.904 317.046L115.255 317.983C119.139 316.526 122.328 314.204 124.33 311.577C126.322 308.963 127.223 305.91 126.179 303.127L125.243 303.478ZM114.904 317.046L114.553 316.11C110.966 317.455 107.421 317.741 104.608 317.165C101.78 316.586 99.8455 315.181 99.1295 313.272L98.1932 313.624L97.2569 313.975C98.3008 316.758 100.987 318.465 104.207 319.125C107.442 319.787 111.372 319.439 115.255 317.983L114.904 317.046ZM98.1932 313.624L99.1296 313.272C98.4136 311.364 98.9473 309.033 100.697 306.737C102.437 304.453 105.297 302.337 108.883 300.992L108.532 300.055L108.181 299.119C104.298 300.575 101.108 302.897 99.1062 305.525C97.114 308.139 96.2132 311.192 97.2569 313.975L98.1932 313.624ZM108.532 300.055L108.883 300.992C109.999 300.573 111.113 300.256 112.204 300.037L112.007 299.056L111.809 298.076C110.612 298.317 109.396 298.663 108.181 299.119L108.532 300.055ZM112.007 299.056H113.007V230.932H112.007H111.007V299.056H112.007ZM112.007 230.932L111.389 230.146C100.927 238.364 89.0629 242.983 76.5067 242.983V243.983V244.983C89.5776 244.983 101.867 240.169 112.624 231.719L112.007 230.932ZM76.5067 243.983V242.983C63.1554 242.983 50.5844 237.76 39.6514 228.539L39.0067 229.303L38.362 230.068C49.5917 239.539 62.606 244.983 76.5067 244.983V243.983ZM39.0067 229.303H38.0067V301.5H39.0067H40.0067V229.303H39.0067ZM39.0067 301.5L38.2756 302.182C38.7306 302.669 39.0779 303.219 39.3067 303.829L40.243 303.478L41.1793 303.127C40.8533 302.258 40.3615 301.486 39.7378 300.817L39.0067 301.5ZM40.243 303.478L39.3067 303.829C40.0226 305.738 39.489 308.069 37.7392 310.365C35.9992 312.649 33.1396 314.765 29.553 316.11L29.9042 317.046L30.2553 317.983C34.1385 316.526 37.3282 314.204 39.3301 311.577C41.3222 308.963 42.2231 305.91 41.1794 303.127L40.243 303.478ZM29.9042 317.046L29.553 316.11C25.9665 317.455 22.4207 317.741 19.6082 317.165C16.7801 316.586 14.8455 315.181 14.1295 313.272L13.1932 313.624L12.2569 313.975C13.3008 316.758 15.9868 318.465 19.2069 319.125C22.4424 319.787 26.3722 319.439 30.2553 317.983L29.9042 317.046ZM13.1932 313.624L14.1296 313.272C13.4136 311.364 13.9473 309.033 15.697 306.737C17.4371 304.453 20.2967 302.337 23.8833 300.992L23.5321 300.055L23.1809 299.119C19.2977 300.575 16.108 302.897 14.1062 305.525C12.114 308.139 11.2132 311.192 12.2569 313.975L13.1932 313.624ZM23.5321 300.055L23.8833 300.992C24.999 300.573 26.1131 300.256 27.2043 300.037L27.0067 299.056L26.8092 298.076C25.6123 298.317 24.3955 298.663 23.181 299.119L23.5321 300.055ZM27.0067 299.056H28.0067V216.784H27.0067H26.0067V299.056H27.0067ZM27.0067 216.784L27.7927 216.166C11.4359 195.368 1.00671 164.28 1.00671 129.483H0.00671387H-0.993286C-0.993286 164.649 9.54109 196.194 26.2207 217.402L27.0067 216.784ZM0.00671387 129.483H1.00671C1.00671 98.035 9.52494 69.6094 23.2445 49.0748C36.9687 28.5335 55.8192 15.983 76.5067 15.983V14.983V13.983C54.9445 13.983 35.545 27.0642 21.5816 47.9637C7.6136 68.87 -0.993286 97.6944 -0.993286 129.483H0.00671387Z" fill="black" mask="url(#path-1-inside-1_2_8)"/>
<ellipse cx="116.268" cy="26.2872" rx="21.5" ry="11.5" transform="rotate(7.77623 116.268 26.2872)" fill="#FFA8A8"/>
<ellipse cx="74.1403" cy="17.6715" rx="21.5" ry="11.5" transform="rotate(18.3078 74.1403 17.6715)" fill="#FFA8A8"/>
<circle cx="95.3044" cy="21.4895" r="10" transform="rotate(11.5583 95.3044 21.4895)" fill="#FFC4C4"/>
<path d="M52 88.5C57.3154 88.5 62.1779 91.5697 65.7324 96.6348C69.2859 101.698 71.5 108.72 71.5 116.5C71.5 124.28 69.2859 131.302 65.7324 136.365C62.1779 141.43 57.3154 144.5 52 144.5C46.6846 144.5 41.8221 141.43 38.2676 136.365C34.7141 131.302 32.5 124.28 32.5 116.5C32.5 108.72 34.7141 101.698 38.2676 96.6348C41.8221 91.5697 46.6846 88.5 52 88.5Z" fill="white" stroke="black"/>
<path d="M104 88.5C109.315 88.5 114.178 91.5697 117.732 96.6348C121.286 101.698 123.5 108.72 123.5 116.5C123.5 124.28 121.286 131.302 117.732 136.365C114.178 141.43 109.315 144.5 104 144.5C98.6846 144.5 93.8221 141.43 90.2676 136.365C86.7141 131.302 84.5 124.28 84.5 116.5C84.5 108.72 86.7141 101.698 90.2676 96.6348C93.8221 91.5697 98.6846 88.5 104 88.5Z" fill="white" stroke="black"/>
<path d="M99.5 119.5C105.596 119.5 110.5 124.222 110.5 130C110.5 135.778 105.596 140.5 99.5 140.5C93.4037 140.5 88.5 135.778 88.5 130C88.5 124.222 93.4037 119.5 99.5 119.5Z" fill="black" stroke="black"/>
<path d="M47.5 119.5C53.5963 119.5 58.5 124.222 58.5 130C58.5 135.778 53.5963 140.5 47.5 140.5C41.4037 140.5 36.5 135.778 36.5 130C36.5 124.222 41.4037 119.5 47.5 119.5Z" fill="black" stroke="black"/>
</svg>
