<?xml version="1.0" standalone="no"?>
<!DOCTYPE svg PUBLIC "-//W3C//DTD SVG 20010904//EN"
 "http://www.w3.org/TR/2001/REC-SVG-20010904/DTD/svg10.dtd">
<svg version="1.0" xmlns="http://www.w3.org/2000/svg"
 width="1129.000000pt" height="980.000000pt" viewBox="0 0 1129.000000 980.000000"
 preserveAspectRatio="xMidYMid meet">

<g transform="translate(0.000000,980.000000) scale(0.100000,-0.100000)"
fill="#000000" stroke="none">
<path d="M9170 9793 c-8 -3 -105 -41 -215 -84 -293 -114 -435 -152 -695 -185
-236 -30 -403 -69 -501 -119 -19 -10 -88 -55 -154 -100 -238 -163 -394 -255
-666 -390 -232 -116 -289 -155 -403 -277 -121 -128 -223 -287 -449 -701 l-87
-157 58 -79 c118 -158 192 -355 227 -606 13 -96 14 -285 0 -385 -33 -247 -105
-426 -288 -717 -139 -222 -196 -361 -255 -619 -53 -230 -57 -266 -57 -509 0
-230 0 -230 34 -362 19 -73 33 -135 30 -137 -2 -2 -28 -14 -56 -25 l-53 -21
-14 28 c-21 40 -83 273 -102 382 -22 125 -22 379 0 515 35 218 86 365 228 650
112 224 209 440 236 525 143 440 95 882 -133 1224 -81 123 -90 125 -302 90
-90 -16 -163 -31 -163 -34 0 -4 22 -36 48 -71 178 -238 246 -462 246 -819 0
-256 -27 -407 -140 -767 -143 -456 -175 -593 -198 -848 -16 -165 -16 -444 -1
-766 6 -113 5 -168 -3 -172 -27 -18 -107 196 -122 325 -13 111 -12 499 1 673
9 125 52 410 109 720 59 322 64 372 64 725 0 380 -6 431 -72 607 -48 127 -109
232 -172 301 l-49 52 -143 -1 c-79 -1 -167 -4 -196 -7 l-52 -7 23 -25 c157
-170 260 -350 307 -537 50 -195 52 -730 5 -1243 -13 -138 -28 -359 -39 -565
-2 -38 -7 -270 -10 -515 -4 -245 -9 -473 -12 -508 l-6 -63 -91 3 -92 3 -6 80
c-18 216 -21 805 -8 1300 8 286 14 709 13 940 0 452 -6 532 -60 770 -21 97
-92 356 -98 363 -2 1 -52 7 -112 13 -141 14 -337 50 -547 100 -93 22 -171 38
-174 35 -6 -5 107 -156 273 -366 113 -143 199 -276 233 -361 71 -178 116 -545
141 -1164 12 -298 12 -1154 0 -1455 -11 -265 -8 -260 -116 -260 l-64 0 0 143
c0 338 -35 993 -70 1302 -16 146 -39 429 -60 755 -38 581 -51 639 -200 870
-128 200 -168 296 -190 450 -18 127 -6 114 -132 149 -215 59 -586 137 -611
128 -6 -2 10 -19 37 -38 259 -181 422 -350 496 -514 74 -164 89 -301 66 -614
-38 -510 -20 -648 164 -1271 138 -467 200 -726 250 -1044 34 -219 36 -279 7
-284 -10 -2 -52 4 -93 13 -62 14 -77 21 -84 41 -5 13 -28 113 -50 221 -57 276
-133 568 -255 988 -25 88 -64 221 -85 295 -22 74 -44 174 -50 221 -6 47 -11
279 -12 515 -2 546 -9 707 -38 798 -70 222 -208 424 -412 606 l-103 91 -195
-6 c-330 -9 -569 -45 -805 -121 -143 -45 -385 -166 -504 -251 -216 -155 -490
-461 -590 -660 -27 -54 -27 -57 10 -103 29 -36 31 -43 24 -87 l-7 -48 -14 45
c-22 74 -60 89 -115 43 -61 -51 -115 -207 -219 -625 -168 -673 -330 -1563
-405 -2224 -56 -488 -21 -898 115 -1349 40 -130 124 -357 175 -470 15 -33 31
-71 36 -84 5 -13 12 -22 15 -19 7 8 80 245 124 403 70 256 155 625 179 780 42
272 43 951 1 1375 -6 58 -13 128 -16 155 -3 28 -9 79 -15 115 -19 132 -40 401
-46 610 -9 336 18 593 93 879 19 74 38 140 42 147 4 7 5 -92 4 -221 -6 -390
26 -541 238 -1120 155 -423 188 -538 197 -697 7 -126 -5 -214 -52 -383 -91
-324 -238 -684 -351 -856 -23 -36 -59 -96 -80 -133 -34 -63 -36 -72 -35 -147
1 -45 17 -166 36 -269 61 -334 66 -389 72 -760 5 -340 0 -461 -37 -917 -17
-206 7 -313 100 -448 17 -25 45 -75 62 -112 l31 -66 -17 -113 -18 -112 26 -65
c14 -36 26 -70 26 -75 0 -11 227 -22 481 -22 241 0 234 -3 233 107 -1 108 -27
168 -150 350 -167 246 -178 276 -219 563 -33 233 -45 423 -45 694 0 393 22
552 99 705 120 237 532 913 548 898 2 -2 -14 -98 -36 -213 -21 -115 -47 -259
-56 -321 -22 -150 -31 -131 194 -360 112 -114 208 -230 258 -311 58 -96 330
-651 498 -1017 150 -327 166 -359 220 -441 38 -57 79 -101 138 -150 145 -119
158 -146 142 -284 -6 -57 -5 -71 14 -105 11 -22 21 -47 21 -57 0 -10 8 -21 18
-27 25 -13 417 -34 568 -30 92 3 136 8 147 18 20 16 23 122 7 183 -11 40 -90
163 -137 213 -271 293 -350 399 -535 725 -347 608 -555 1028 -603 1215 -45
175 -39 462 15 691 59 253 90 383 164 684 138 564 160 650 171 650 6 0 69 -25
141 -56 518 -224 881 -303 1459 -320 328 -10 528 10 819 82 154 38 221 42 271
18 67 -32 70 -43 68 -289 -1 -221 -16 -415 -53 -730 -29 -240 -34 -371 -21
-515 6 -69 14 -228 18 -355 8 -325 -10 -552 -78 -965 -71 -436 -62 -503 102
-764 l62 -99 -18 -66 c-27 -94 -31 -166 -11 -196 9 -14 20 -42 24 -62 8 -37 9
-38 62 -45 85 -10 660 -9 660 1 0 59 -25 221 -39 254 -10 24 -61 108 -113 188
-136 206 -154 242 -172 337 -28 148 -40 439 -27 665 17 306 47 472 141 772 50
160 85 298 100 390 19 124 69 304 157 570 47 143 94 279 104 303 l19 43 82
-68 c201 -163 259 -213 350 -301 153 -148 274 -334 297 -457 13 -67 -3 -199
-33 -279 -51 -134 -233 -418 -378 -589 -46 -54 -103 -122 -126 -150 -77 -91
-87 -123 -87 -273 0 -128 0 -131 -29 -168 -21 -28 -56 -51 -134 -90 -138 -66
-152 -85 -152 -203 0 -162 114 -497 194 -572 50 -47 152 -6 226 91 35 47 197
357 655 1258 136 267 304 592 372 724 l126 238 -12 152 c-18 228 -51 341 -163
556 -90 173 -149 282 -183 340 -18 30 -47 82 -65 115 -39 70 -148 269 -244
443 l-68 122 88 88 c214 210 325 443 400 844 44 235 78 343 150 471 193 341
639 935 920 1226 l121 125 171 -103 c201 -121 251 -143 397 -171 180 -35 307
-92 600 -268 176 -105 201 -129 226 -217 35 -127 94 -195 200 -230 74 -25 198
-17 264 15 62 31 156 125 227 227 108 153 138 236 138 374 0 131 -22 217 -91
359 -93 191 -154 295 -464 790 -88 140 -137 240 -185 380 -88 251 -134 316
-399 554 -23 21 -39 42 -34 47 5 5 67 22 138 38 152 34 182 45 213 73 26 25
30 79 7 98 -9 7 -46 23 -83 35 -44 14 -68 28 -70 39 -2 9 12 41 32 69 20 29
36 64 36 78 0 29 -21 41 -98 58 -24 5 -46 12 -50 16 -3 3 4 45 16 93 21 83 29
192 16 226 -16 42 -145 -1 -325 -110 l-56 -34 -64 26 c-276 113 -424 154 -553
153 -50 0 -98 -3 -106 -6z m-588 -995 c51 -98 98 -275 118 -439 11 -97 12
-199 1 -199 -3 0 -21 35 -40 78 -49 110 -166 324 -228 415 -30 43 -55 83 -56
89 -2 9 154 86 178 87 6 1 18 -14 27 -31z m-505 -403 c318 -519 389 -703 408
-1055 6 -117 -1 -120 -35 -16 -106 324 -397 844 -635 1132 l-25 31 81 42 c45
23 86 40 92 38 5 -1 57 -79 114 -172z m-677 -157 c47 -64 292 -565 354 -723
149 -379 210 -710 186 -999 -12 -150 -54 -419 -71 -462 l-11 -29 -9 25 c-5 14
-29 133 -54 265 -155 814 -337 1347 -614 1799 -23 37 -41 69 -39 71 17 15 188
94 205 94 16 1 33 -13 53 -41z m-707 -341 c35 -58 101 -225 138 -344 85 -276
92 -598 19 -863 -41 -147 -54 -175 -233 -507 -79 -147 -134 -268 -158 -346
l-18 -59 72 -76 c40 -41 79 -83 87 -91 21 -22 168 -196 213 -253 79 -99 246
-359 307 -478 61 -120 141 -302 135 -308 -4 -5 -69 67 -236 258 -213 245 -320
361 -566 610 -123 124 -223 230 -223 236 0 6 20 71 45 143 49 142 127 325 210
491 99 196 159 359 191 519 25 127 16 366 -20 524 -34 146 -50 197 -116 360
-41 103 -49 132 -39 143 17 20 131 84 151 84 9 0 27 -19 41 -43z m-4339 -89
c262 -84 472 -201 611 -343 128 -130 176 -238 183 -406 5 -131 -19 -269 -85
-478 -90 -288 -113 -406 -113 -581 0 -110 44 -227 287 -760 175 -383 303 -702
303 -756 0 -26 -1 -26 -46 -21 -52 5 -63 17 -103 102 -16 33 -121 247 -234
475 -223 451 -353 725 -398 835 -70 176 -59 319 53 680 96 310 120 456 94 568
-9 37 -27 89 -40 116 -53 104 -214 229 -451 349 -115 58 -115 58 -96 -52 23
-129 12 -348 -30 -646 -28 -190 -33 -428 -13 -535 37 -199 132 -414 366 -830
204 -363 393 -726 386 -744 -6 -16 -247 300 -526 686 -183 253 -297 452 -370
643 -77 198 -77 201 -77 450 0 237 1 249 60 525 67 314 81 509 50 672 -8 43
-15 86 -15 96 0 22 -14 25 204 -45z m-792 -125 c62 -109 71 -274 24 -438 -16
-55 -55 -168 -87 -251 -125 -329 -149 -418 -149 -569 0 -367 179 -598 895
-1155 220 -172 267 -213 411 -359 70 -71 142 -161 129 -161 -15 0 -608 338
-766 436 -275 171 -406 266 -492 360 -237 256 -317 471 -287 767 15 152 39
273 125 619 84 341 106 439 136 628 26 168 30 175 61 123z m5753 -673 c26
-111 27 -122 22 -310 -9 -296 -34 -378 -226 -724 l-50 -90 26 -50 c14 -28 37
-69 51 -91 101 -160 268 -556 297 -705 l7 -35 -25 25 c-14 14 -78 96 -144 182
-389 518 -418 572 -382 728 14 61 80 197 171 356 90 156 145 288 164 395 7 43
16 176 20 296 7 216 7 217 24 178 9 -22 30 -92 45 -155z m-933 -1907 c160
-158 369 -383 463 -498 31 -38 68 -82 81 -97 36 -42 115 -160 110 -165 -10
-10 -186 116 -376 268 -102 82 -317 273 -469 417 l-95 90 18 26 c22 35 95 106
108 106 6 0 78 -66 160 -147z m-4847 -225 c94 -42 199 -88 235 -104 179 -79
301 -154 360 -221 33 -37 90 -146 90 -172 0 -20 -33 -9 -231 79 -332 148 -446
212 -556 314 -57 53 -113 139 -113 174 0 21 25 13 215 -70z"/>
</g>
</svg>
